<svg xmlns="http://www.w3.org/2000/svg" viewBox="0 0 763.45 434.47"><defs><style>.cls-1{fill:#31c4f3;}</style></defs><g id="Layer_2" data-name="Layer 2"><g id="Layer_1-2" data-name="Layer 1"><path class="cls-1" d="M185,27.7,117.22,96.91,49.81,165.77,11.74,204.65l-6.25,8.1-4,9.55L0,232.94a30.15,30.15,0,0,0,3.45,15.41,19.9,19.9,0,0,0,5.14,8.82,20.08,20.08,0,0,0,7.18,7.18,19.9,19.9,0,0,0,8.82,5.14A30.07,30.07,0,0,0,40,272.94q14.11,1.19,28.15,3.07l-10.63-1.43a573.43,573.43,0,0,1,58.28,11,574.86,574.86,0,0,1,57.06,17q15.78,5.6,31.22,12.1l-9.56-4q24,10.14,47.05,22.43,6.54,3.5,13,7.16a29.92,29.92,0,0,0,14.88,4.75A35.94,35.94,0,0,0,299,337.05a30.23,30.23,0,0,0,10.3-11.22l4-9.56a40.16,40.16,0,0,0,0-21.26l-4-9.56A40.19,40.19,0,0,0,295,271.1q-21.1-12-43.18-22.15c-17.69-8.14-35.72-15.65-54-22.29q-22.83-8.26-46.29-14.59t-47.13-10.6c-19.28-3.49-38.76-6.14-58.26-8-2-.19-4-.37-6-.54l28.29,68.28L136.06,192l67.41-68.86,38.07-38.88a30,30,0,0,0,8.27-12.88A30.12,30.12,0,0,0,253.26,56a30.17,30.17,0,0,0-3.45-15.41,29.92,29.92,0,0,0-8.27-12.87l-8.1-6.26A39.82,39.82,0,0,0,213.26,16l-10.64,1.43A40,40,0,0,0,185,27.7Z"/><path class="cls-1" d="M364.85,25.7,344.79,96.84,324.73,168l-20.06,71.14-20.05,71.15-20.06,71.14-2.47,8.76a26.53,26.53,0,0,0-.63,14,26,26,0,0,0,4.16,13,26.45,26.45,0,0,0,9,9.82,26.37,26.37,0,0,0,11.9,6.26l9.31,1.25a34.78,34.78,0,0,0,17.66-4.78c7.7-5,13.56-11.94,16.09-20.91l20.06-71.14,20.05-71.15,20.06-71.14,20.06-71.14,20.06-71.14,2.47-8.77A26.49,26.49,0,0,0,433,30.35a26,26,0,0,0-4.15-13,26.55,26.55,0,0,0-9-9.82,26.32,26.32,0,0,0-11.9-6.26L398.6,0a34.82,34.82,0,0,0-17.67,4.78c-7.7,5-13.55,11.94-16.08,20.92Z"/><path class="cls-1" d="M436.14,94.21l52.06,25.48,52.3,25.6,52,25.47,52.06,25.48,52,25.48,6.6,3.23,9.55-73.11q-29.1,10.22-57.76,21.67Q622,186.74,589.43,201.37,561.42,214,534,227.79T479.46,256.7q-26.82,15-53,31.09l-6.45,4a30.23,30.23,0,0,0-11.22,10.3,35.89,35.89,0,0,0-7.87,29.55,29.81,29.81,0,0,0,4.74,14.88l6.26,8.09a39.91,39.91,0,0,0,17.65,10.29l10.63,1.43a40,40,0,0,0,20.19-5.46q37.5-23.39,76.39-44.41t79-39.61q22.53-10.44,45.42-20.09l-9.55,4q31.8-13.41,64.22-25.28,9.07-3.33,18.21-6.53l9.56-4,8.09-6.25,6.26-8.1a29.78,29.78,0,0,0,4.74-14.87,20,20,0,0,0,0-10.63A19.88,19.88,0,0,0,760,175a19.9,19.9,0,0,0-5.14-8.82,30.26,30.26,0,0,0-11.22-10.31L691.58,130.4l-52.3-25.61-52-25.47L535.18,53.84,483.12,28.36l-6.6-3.23a29.79,29.79,0,0,0-14.87-4.75,35.94,35.94,0,0,0-29.55,7.88,30.26,30.26,0,0,0-10.31,11.22l-4,9.56a40.36,40.36,0,0,0,0,21.26l4,9.56a40.27,40.27,0,0,0,14.35,14.35Z"/></g></g></svg>