<svg xmlns="http://www.w3.org/2000/svg" viewBox="0 0 51.17 51.35"><defs><style>.cls-1{fill:none;stroke:#0a4769;stroke-miterlimit:10;stroke-width:3px;}</style></defs><g id="Layer_2" data-name="Layer 2"><g id="Layer_1-2" data-name="Layer 1"><path class="cls-1" d="M26.16,2.09c.05.28-.29.45-.42.68s-.15.23-.2.34a1.74,1.74,0,0,1-.2.3c-.16.22-.28.48-.45.7A9,9,0,0,0,24.3,5c-.3.58-.53,1.27-.89,1.83a.91.91,0,0,0-.18.37,2.37,2.37,0,0,1-.17.36c-.1.2-.09.42-.21.63a2.53,2.53,0,0,0-.2.36c0,.14-.08.27-.14.41-.14.31-.19.63-.32,1a6.59,6.59,0,0,0-.3,1,3.07,3.07,0,0,1-.06.53,3.68,3.68,0,0,0-.16.54c0,.17-.13.32-.17.49a5.6,5.6,0,0,1-.07.59c-.12.37-.32.71-.41,1.09-.14.6-.25,1.21-.39,1.81s-.35,1.24-.54,1.86a2.71,2.71,0,0,0-.17.9V24c0,.42-.09.81-.1,1.22,0,.8-.09,1.58-.09,2.38v4.52A9,9,0,0,0,20,34.42c.09.33.16.66.22,1,0,.16,0,.32,0,.49a3.82,3.82,0,0,1,.08.39A4,4,0,0,0,20.63,38a5.12,5.12,0,0,1,.14.68,2.24,2.24,0,0,1,.23.79,2.45,2.45,0,0,0,.33,1.36,3.3,3.3,0,0,1,.23.41c.05.14.06.3.12.45a3.14,3.14,0,0,1,.28.74,2.37,2.37,0,0,0,.18.73.81.81,0,0,1,.12.4,5,5,0,0,0,.19,1,6.58,6.58,0,0,0,.2.74c.14.27.3.52.42.81,0,.09.07.2.11.31s.18.21.23.31a3,3,0,0,1,.33.74c.21,0,.28.2.37.33s.25.47.4.71a3.2,3.2,0,0,0,.34.53c.06.08.08.15.14.22s.2.27.29.37"/><path class="cls-1" d="M7.45,9.79c0,.14,0,.17.09.26a.18.18,0,0,1,.15.1.2.2,0,0,1,0,.2,3.41,3.41,0,0,0,.44.6,1.18,1.18,0,0,1,.23.27c.06.16,0,.18.1.32a3.2,3.2,0,0,1,.3.45,9.27,9.27,0,0,1,.66,2.77c.07.4,0,.82.07,1.23a6,6,0,0,0,.25,1.32,12.49,12.49,0,0,1,.37,1.46c.07.44.06.9.13,1.34a15.53,15.53,0,0,1,.18,2.26c0,.28,0,.59,0,.86s.14.74.18,1.1.07.93.11,1.39a17.88,17.88,0,0,1,.11,1.94v2.6a6.59,6.59,0,0,1,0,.77,3.38,3.38,0,0,1-.23.7,3.54,3.54,0,0,0-.16.85c0,.13-.13.27-.1.4s0,.11-.08.12-.1.24-.11.42a2.06,2.06,0,0,1-.22.63c-.11.28-.11.59-.19.87a5.77,5.77,0,0,1-.27.56c-.07.13-.11.28-.18.41s-.16.22-.2.33,0,.22,0,.32a1.79,1.79,0,0,1-.12.24c-.14.32-.21.68-.34,1s-.1.72-.23,1.09a3,3,0,0,1-.38.84,4.46,4.46,0,0,0-.33.43c0,.07,0,.17-.08.23s-.15.1-.2.19-.11.26-.19.39a1.26,1.26,0,0,0-.27.51"/><path class="cls-1" d="M41.27,7.15c-.28,0-.26.06-.47.23a3.79,3.79,0,0,1-.6.38,5.65,5.65,0,0,1-.91.55c-.17,0-.21,0-.36.11a2.91,2.91,0,0,0-.3.17c-.2.15-.36.42-.55.59s-.59.41-.86.66a4,4,0,0,1-.53.39c-.12.08-.16.21-.26.28s-.23.08-.33.21a2.25,2.25,0,0,1-.24.3,17.34,17.34,0,0,0-2.12,2.49c-.19.31-.32.66-.53,1-.1.13-.24.25-.33.38s-.1.27-.19.4-.15.15-.2.28,0,.23-.09.33-.15.11-.19.21,0,.24,0,.34A1.48,1.48,0,0,1,32,17a5.55,5.55,0,0,0-.29.6c-.2.47-.49.9-.69,1.37-.1.23-.16.48-.27.71a2.34,2.34,0,0,0-.19.46,3.85,3.85,0,0,0,0,.48c0,.18-.09.34-.1.51s-.08.5-.12.76,0,.64-.1,1a7.82,7.82,0,0,0-.07,1.37v2.45c0,.42-.1.9-.1,1.31s0,.77,0,1.15a3.47,3.47,0,0,0,.32,1.07,9.24,9.24,0,0,0,.46,1.24c.34.73.6,1.48.9,2.23a4.09,4.09,0,0,0,.29.68,1.34,1.34,0,0,1,.17.31c0,.12.2.26.2.39a4.46,4.46,0,0,1,.41.78,7.5,7.5,0,0,0,.83,1,12.78,12.78,0,0,0,.91,1,1.24,1.24,0,0,1,.25.35c.05.1.14.14.21.22a3.64,3.64,0,0,0,.51.53l.59.44c.18.14.33.28.53.41a3.3,3.3,0,0,1,.47.44,2.74,2.74,0,0,0,.57.39c.28.17.49.4.76.57a7,7,0,0,0,.78.38,5.79,5.79,0,0,0,.54.31,12.58,12.58,0,0,0,1.22.6c.25.07.52.13.78.22s.35.2.48.16"/><path class="cls-1" d="M49.36,23.14a.55.55,0,0,0-.5.16l-1,.82c-.18.15-.38.25-.55.41a2.32,2.32,0,0,1-.35.35c-.19.13-.37.32-.57.43s-.51.24-.76.34a5.65,5.65,0,0,0-.72.42,2.33,2.33,0,0,0-.28.11c-.13.07-.21.2-.35.26s-.49.12-.73.23l-.66.27c-.15,0-.29.16-.43.19s-.21,0-.32,0-.31.14-.48.18a3.34,3.34,0,0,1-.62.1,4.47,4.47,0,0,0-1.09.21,6.57,6.57,0,0,1-2.37.56,3.23,3.23,0,0,1-.33-.06,2.35,2.35,0,0,0-1.06.3,10.58,10.58,0,0,1-1.54.58,14.56,14.56,0,0,1-1.84.46c-.46.07-.93.09-1.39.16a8.39,8.39,0,0,1-1.49.23H24.78c-.52,0-1-.1-1.54-.1h-2c-.41,0-.78-.1-1.18-.1H18.63c-.31,0-.65,0-1,0a5.07,5.07,0,0,1-1.14-.31,8.58,8.58,0,0,1-1.07-.45,2.26,2.26,0,0,0-.89-.12h-.89a3.67,3.67,0,0,1-1.53-.37A5.54,5.54,0,0,0,11,28.09c-.32-.07-.64-.21-1-.3a5.11,5.11,0,0,1-1-.26,1.69,1.69,0,0,0-.43-.2c-.15,0-.32,0-.48-.07A6.08,6.08,0,0,1,7.4,27c-.11,0-.23-.05-.34-.09s-.34-.21-.53-.28a4.26,4.26,0,0,1-.42-.11c-.14-.05-.2-.17-.31-.25s-.34-.2-.5-.29a4.23,4.23,0,0,0-.78-.27,3.57,3.57,0,0,1-.46-.16c-.13-.07-.19-.2-.32-.26l-.19,0-.22-.18c-.1-.07-.2-.11-.29-.17a2.17,2.17,0,0,1-.59-.49A3.78,3.78,0,0,0,2,23.94a9.87,9.87,0,0,0-1-1"/><path class="cls-1" d="M26.94,1.5a1.79,1.79,0,0,1,.4.09,5.24,5.24,0,0,1,.54.06c.35.09.68.24,1,.34a3.47,3.47,0,0,1,.78.29,10.52,10.52,0,0,0,1,.45,2.77,2.77,0,0,0,.48.26,3.35,3.35,0,0,1,.64.17c.13.06.22.16.34.22a1.14,1.14,0,0,0,.44.08,5.26,5.26,0,0,1,1.09.33c.28.1.54.18.81.26s.27.18.4.23.29.08.44.14c.58.26,1.15.48,1.7.76a1.43,1.43,0,0,0,.49.13,2.67,2.67,0,0,1,.67.29c.22.1.46.1.68.19s.45.19.69.27a5.57,5.57,0,0,0,.67.12.93.93,0,0,1,.48.25l.91.63c.18.14.36.28.52.43s.54.37.79.58a2.33,2.33,0,0,1,.42.41,5.88,5.88,0,0,1,.41.73c0,.09.11.12.17.21s0,.09,0,.11.14.05.16.08.27.52.51.57a1.83,1.83,0,0,1,.63.58,5.46,5.46,0,0,1,.41.75c.19.36.44.68.65,1s.35.53.49.81.16.45.28.66.27.39.37.6a5,5,0,0,0,.25.52c.17.25.17.51.33.77a1,1,0,0,1,.19.36c0,.11,0,.22,0,.33.07.32.25.65.3,1,.08.5.31,1,.4,1.47s.3,1.23.46,1.85a2.93,2.93,0,0,1,.12.72c0,.26.09.47.1.73s0,.53,0,.79a5.4,5.4,0,0,1,.1.58c0,.32,0,.76,0,1.08a10.28,10.28,0,0,0-.21,1.37,3.47,3.47,0,0,1-.07,1c-.06.26-.08.52-.14.79s-.15.4-.19.62,0,.41-.08.61a9.14,9.14,0,0,1-.27,1.09,4.32,4.32,0,0,0,0,.88,5,5,0,0,1-.11.56,4.56,4.56,0,0,0,0,.52,8.79,8.79,0,0,1-.22,2,5.78,5.78,0,0,1-.44,1.16,5,5,0,0,1-.51,1c-.34.49-.67,1-1,1.47a6.75,6.75,0,0,1-.44.65,4.37,4.37,0,0,0-.47.49c-.08.13-.08.26-.16.39s-.23.13-.22.29a6.83,6.83,0,0,0-.83.87c-.18.21-.34.48-.54.67a13.14,13.14,0,0,0-1.35,1.34A4,4,0,0,1,42,43a13.79,13.79,0,0,1-1.42,1.1c-.34.24-.73.41-1.06.66s-.46.27-.7.43-.44.39-.69.55l-.69.38a5,5,0,0,1-.68.45,3.1,3.1,0,0,0-.79.28,2.4,2.4,0,0,1-.82.47,9.15,9.15,0,0,0-1,.22,5.06,5.06,0,0,0-.79.19,4.6,4.6,0,0,1-.44.25c-.23.08-.5.07-.74.14a6.12,6.12,0,0,1-.82.2,6.48,6.48,0,0,0-1,.17,13.79,13.79,0,0,0-2,.46c-.23.09-.4.26-.63.35a1.34,1.34,0,0,0-.19,0c-.09,0-.18.12-.27.16a2.36,2.36,0,0,1-.51.12,2.69,2.69,0,0,0-.68.16,4.2,4.2,0,0,1-1.17.12H22.66a1.2,1.2,0,0,1-.51-.13,1.59,1.59,0,0,0-.38-.07,2.11,2.11,0,0,1-.48-.17l-.64-.22-.33-.09c-.11-.05-.2-.13-.31-.18-.91-.38-1.94-.16-2.82-.61a1.52,1.52,0,0,1-.81-.3c-.46-.26-1-.51-1.41-.79-.15-.09-.25-.25-.41-.32s-.23,0-.34-.06-.23-.21-.33-.28a3.62,3.62,0,0,0-.32-.22c-.15-.09-.27-.22-.42-.3s-.29-.09-.44-.18-.53-.29-.78-.47a7.58,7.58,0,0,0-.88-.49,2.54,2.54,0,0,1-.34-.23c-.1-.08-.21-.08-.31-.17s-.15-.21-.25-.29A3.19,3.19,0,0,1,9.77,44c-.22-.18-.45-.35-.68-.51s-.26-.13-.38-.2-.18-.14-.31-.27l-.33-.31c-.16-.16-.33-.32-.48-.5a4.9,4.9,0,0,1-.38-.76,11.45,11.45,0,0,0-.74-1.08s-.15-.11-.17-.11a3.29,3.29,0,0,0-.39-.74c-.21-.37-.42-.77-.61-1.15a14.81,14.81,0,0,0-.88-1.62c-.1-.17-.12-.36-.21-.53S4.09,36.09,4,36a6.89,6.89,0,0,1-.49-1,8.65,8.65,0,0,1-.47-1.19,1.61,1.61,0,0,0-.21-.65c-.07-.09-.17-.16-.24-.25a9.9,9.9,0,0,1-.51-1.27,2.12,2.12,0,0,1-.22-.58c0-.16,0-.33,0-.49-.07-.42-.18-.85-.28-1.27a5.94,5.94,0,0,1-.1-1.41V23.77c0-.37,0-.74,0-1.12a2.23,2.23,0,0,1,.11-.73,3.73,3.73,0,0,0,.08-.44c.05-.24.24-.48.31-.73a6.12,6.12,0,0,1,.18-1,4.66,4.66,0,0,0,.3-.47c.23-.67.38-1.47.58-2.14a3.23,3.23,0,0,1,.2-.42,2.12,2.12,0,0,0,.12-.41,1.83,1.83,0,0,1,.29-.51,7.19,7.19,0,0,0,.67-1.25c.09-.22.25-.4.33-.63a3.77,3.77,0,0,1,.34-.7c.15-.26.27-.53.39-.79s.31-.35.42-.61a3.24,3.24,0,0,1,.41-.63,5.56,5.56,0,0,0,.39-.77c.07-.14.18-.25.25-.4a1.59,1.59,0,0,1,.26-.52,6.72,6.72,0,0,0,.56-.73c.3-.43.83-.71.83-1.28.22,0,.59-.46.75-.58.38-.31.79-.58,1.18-.89a13.41,13.41,0,0,1,1.17-.8,5.64,5.64,0,0,0,.51-.45,1.08,1.08,0,0,1,.29-.13c.19-.1.15-.16.31-.28s.18-.05.28-.09a5.55,5.55,0,0,1,.6-.29c.55-.14,1.06-.49,1.6-.67.36-.12.6-.31,1-.4a5.21,5.21,0,0,0,.5-.2c.2-.08.41-.1.61-.19a1.06,1.06,0,0,1,.46-.1,3.21,3.21,0,0,0,.72-.24,5.18,5.18,0,0,1,.59-.1,1.78,1.78,0,0,1,.58-.15,3.22,3.22,0,0,0,.93,0c.36,0,.67-.19,1-.19a6.86,6.86,0,0,0,1.11,0,4.46,4.46,0,0,1,.81-.09h4.31a2,2,0,0,1,1,.1,1.75,1.75,0,0,0,.88.19"/></g></g></svg>