<svg xmlns="http://www.w3.org/2000/svg" viewBox="0 0 206.03 74.28"><defs><style>.cls-1{fill:none;stroke:#084a59;}</style></defs><g id="Layer_2" data-name="Layer 2"><g id="Layer_1-2" data-name="Layer 1"><path class="cls-1" d="M33.24,1.29,34,1.16h.37l.13.13.13.13.14.13.11.11L35,1.8l.13.24.13.13.13.13.11.13.13.25.14.13.13.13.11.11.13.13.13.26.13.11.11.14.14.13.13.26.11.11.13.13.13.14.13.13.11.24.13.13.14.13.13.11.13.27.13.11.11.13.13.13.13.13.11.26.14.11.13.14.13.13.11.24.13.13.13.13.14.11.11.14.13.26.13.11.13.13.11.13.13.13.13.25.11.13.16.11.11.15.13.24.13.14.13.13.11.11.14.13.13.24.11.13.13.13.13.14.13.24.11.13.13.13.14.11.13.13.11.27.13.13.13.11.13.13.11.26.13.11.14.14.13.13.13.13.11.24.13.13.13.14.14.1.11.27.13.11.13.13.13.13.11.13.13.27.13.11.11.13.14.13.13.24.13.13.11.14.13.11.13.13.14.26.13.11.11.13.13.14.13.24.13.13.11.13.13.13.14.24.13.14.11.13.13.13.13.24.13.13.11.13.14.25.13.13.11.11.13.13.13.26.13.11.13.14.14.26.11.13.13.11.13.26.13.14.11.11.13.13.13.26.11.11.14.13.13.27.13.11.11.13.13.13.13.24.14.13.11.14.13.26.13.11.13.13.13.13.11.24.13.14.14.13.13.24.11.13.13.13.13.25.13.13.11.13.14.11.13.26.11.14.13.13.13.24.13.13.11.13.13.11.11.26.14.14.13.11.13.26.13.11.13.13.11.13.13.25.14.13.11.13.13.26.13.14.13.11.11.26.13.11.14.13.13.13v.88l-.13.13-.14.14-.13.1L55.1,29l-.13.13-.13.13-.13.13-.11.11-.14.13-.13.14-.11.13-.13.11-.13.13-.13.13-.13.11-.14.13-.11.13-.13.14-.11.11-.13.13-.13.13-.13.13-.11.11-.13.13-.14.27-.11.11L52.2,32l-.13.13-.13.11-.11.13-.13.13-.14.14-.13.11-.11.13-.13.13-.13.13-.13.11-.13.13-.11.14-.14.13-.13.11-.13.13-.11.13-.13.13-.13.13-.14.11-.11.14v.13l.11.13.14.11.13.13.13.13.11.14.13.11.27.13.11.13.13.11.13.13.13.13.13.13.11.11.13.14.27.13.11.13.13.13.13.11.13.13.11.13.14.14.13.11.24.13.13.13.13.13.11.11.13.27v1l-.13.77-.11.74-.13.75-.13.77-.13.77-.11.74-.13.77-.14.75-.11.77-.13.75-.13.77-.13.74-.11.77L51.7,50l-.14.77-.13.75-.11.77-.13.74-.13.77-.13.75-.13.77-.11.75-.14.76-.13.75-.13.77-.11.24h-.26v.27l-.14.13-.24.11-.13.13-.24.13-.26.11-.25.13-.26.13-.26.14L47.9,60l-.25.13-.26.11-.24.13-.13.13-.27.14-.24.11-.26.13L46,61l-.27.11-.24.13-.26.13-.25.13-.26.11-.11.14-.26.13-.24.13-.27.11-.24.13-.26.13-.27.14-.24.13-.26.11-.24.13L42.2,63l-.24.13-.26.11-.24.13-.27.14-.24.13-.26.11-.27.13-.24.13-.24.11-.13.13-.26.14-.25.13-.26.11-.24.15-.27.11-.24.13-.24.13-.26.14-.27.11-.13.13-.24.13-.26.11-.24.13L36.4,66l-.26.14-.24.1-.27.14-.24.13-.26.13-.13.11-.24.13-.27.13-.24.14L34,67.3l-.25.11-.26.13-.24.13L33,67.8l-.25.11L32.6,68l-.26.14-.24.13-.27.11-.24.13-.26.13-.24.11-.27.13-.24.14-.13.13-.24.11-.27.13-.26.13-.24.13-.27.11-.24.13-.24.14-.26.13-.24.13-.14.11-.26.13-.24.13-.27.13-.24.11-.26.14-.24.13-.27.13-.24.11-.26.13-.13.13-.24.14-.25.11-.26.13-.24.13-.27.11-.26.15-.24.11-.26.13-.25.14-.13.13L23,73.1l-.26.13-.25.13-.26.11L22,73.6H20.08l-3.28-.13-3.29-.11-3.3-.13L7.09,73.1,3.8,73H3.55l-.26.11H3l-.11-.38-.13-.24-.14-.39-.13-.24-.11-.27-.13-.37-.13-.27L2,70.57l-.11-.24-.14-.26-.13-.38-.11-.26-.13-.24-.13-.4-.13-.24L1,68.18.9,67.91l-.14-.24L.63,67.3.5,67v-.5l.13-.37.13-.4.14-.48.13-.4.11-.37.13-.4.13-.48.13-.4.11-.37.13-.51L1.91,62l.11-.4.13-.37.13-.5.13-.38L2.52,60l.13-.53.14-.37.13-.38L3,58.31l.13-.5.13-.38L3.42,57l.13-.51.11-.37.14-.38.13-.5.13-.37.11-.4.13-.37.13-.51.13-.37.11-.4.14-.48.13-.4.11-.37.13-.37.13-.51.13-.4L5.55,50l.14-.5.13-.38L6,48.69l.13-.51.13-.37.11-.38.13-.37.14-.5.11-.4.13-.37L7,45.28l.13-.37.11-.51.13-.5.14-.51.13-.5.11-.51.13-.5L8,41.24l.13-.51.11-.5.13-.51.14-.5.13-.51.13-.5.11-.51L9,37.06l.11-.5.13-.51.11-.5L9.46,35l.14-.5L9.71,34l.13-.64.13-.5.13-.51.11-.5.13-.51.14-.5.13-.51.11-.48.13-.64.13-.5.13-.51.13-.51.11-.5.14-.51-.14-.13-.11-.13L11,26.32l-.26-.13-.11-.11-.27-.14-.24-.13L10,25.68l-.26-.11-.25-.13-.72-.13V25.2l.11-.9L9,23.55l.11-.77L9.22,22l.11-.9.13-.74.14-.77.11-.88L9.84,18l.13-.75.13-.88.11-.77.13-.74.14-.77.13-.88.11-.77.13-.75.13-.9.13-.75.13-.74.11-.9.14-.75.13-.77.13-.77.11-.75.51-.13L13,5.09,13.75,5l.64-.13L15,4.7l.77-.11.62-.13.64-.14.76-.13.62-.11L19.07,4l.77-.13.63-.13.62-.14.77-.11.63-.13.62-.13.77-.13.61-.11.66-.13.75-.13.64-.14.61-.11.77-.13.64-.13L29.17,2l.77-.11.64-.13.64-.14L32,1.55l.64-.13ZM29.68,31.11l14.83-15L33.88,2.3l-21,4L10.06,23.92l3.45-.7A14.76,14.76,0,0,0,12.77,26c-.28,1.39-.49,2.36-.62,2.9-.25,1-.48,1.9-.7,2.81s-.43,1.83-.67,2.77Q10.06,37.29,9.44,40c-.41,1.84-.85,3.67-1.34,5.5Q6.71,50.87,4.85,56.2c-.29.91-.56,1.8-.79,2.68s-.51,1.77-.81,2.66-.55,1.67-.86,2.63-.56,1.82-.75,2.6l2,4.81,34.24-18,4-23.84ZM20.34,39,33,36.43l-.8,6.83L18.8,50.58Zm3.41-16.54,6.94-1.94-8.06,7Z"/><path class="cls-1" d="M61,.63,61.19.5h.24l.13.13.13.11.14.13.11.14.13.24.13.13.11.11.13.13.13.13.11.13.13.11.14.14.11.11.13.26.13.13.13.11.11.13.13.13.11.14.14.11.13.13.13.11.11.26.13.13.13.11.11.27.13.24.14.13.11.24.13.27.13.11.13.26.11.11.13.26.11.24.13.14.14.24.13.26.11.11.13.24.13.14.13.26.11.24.14.13.11.24.13.25.13.13.13.26.11.24.13.11.13.27.11.13.14.24.13.26.11.11.13.25.13.26.11.13.13.24.13.24.14.14.11.24.13.13.11.24.13.27.13.13v.24h.24l.38.11.5.13.38.13.37.13.5.11.38.14.5.13.38.13.37.11.51.13.37.11.37.13.51.13.37.14.38.11.5.13.37.13.49.11L78,15l.11.13.14.25.11.26.13.24.13.24.13.27.11.11.13.26.13.24.11.24.14.27.13.24.11.26.13.24.13.25.11.26.13.24.13.13.14.24.11.25.13.26.11.24.13.27.13.24.13.24.11.26.14.24.13.14.13.24.11.26.13.24.11.24.13.27.13.24.14.24.11.27.13.24.13.13.13.24.11.26.13.25.11.26.13.24.14.24.13.27.11.24.13.26.13.11.11.24.13.27.14.24.11.26.13.24.13.25.11.26.13.24.13.27.11.11.13.24.14.26.11.24.13.27.13.24.13.24.11.26.13.24.11.27L86.44,32l.13,1.74.13,1.86.11,1.76v.51l-.11.24-.13.26-.13.11-.14.13-.11.13-.24.14-.13.11-.13.13-.13.11-.11.13-.14.13V40l.14.61.11.75.13.64.13.74.13.62.11.75.13.63.11.75.14.75.13.63.13.75.11.62.13.74.13.64.13.75.11.61.14.75.11.77.13.61.13.75.13.64.11.75.13.61.13.75.14.64.11.74.13.75.11.64.13.74.13.62.13.75.11.63.14.75v.48l-.14.4L89.2,64l-.13.13-.13.13-.13.12-.11.24-.13.13-.11.13-.14.13-.13.24-.13.14L88,65.5l-.13.13-.13.24-.13.13-.11.13-.14.24-.11.14-.13.11-.13.13-.13.26-.11.11-.13.13-.13.14-.14.24-.11.13-.13.11L86,68l-.13.24-.13.13-.13.14-.11.24-.14.13-.13.11-.11.13-.26.13-.11.13-.64.12-.48.13-.64.13-.61.13-.64.11-.62.13-.63.11-.51.13-.61.13-.62.14-.64.11-.61.13-.64.13-.61.13-.51.11-.64.13-.61.11-.62.14-.63.13-.62.13-.51.11-.61.13-.64.13-.61.11-.64.13-.62.14-.63.11-.49.13-.63.13-.62.11-.64.13-.61.13-.64.14-.48.11-.64.13h-.75l-.37-.13-.37-.11-.38-.14-.26-.13-.35-.13-.4-.11-.37-.13-.24-.13-.38-.11-.37-.14-.39-.13-.25-.11-.37-.13L57.94,72l-.38-.11-.24-.13L57,71.63l-.38-.14-.37-.11-.26-.13-.38-.11L55.19,71l-.37-.13-.27-.13-.35-.11-.39-.14-.38-.13-.24-.13-.37-.11L52.44,70l-.37-.11-.26-.13-.38-.13-.37-.13-.35-.12-.24-.13-.38-.13L49.72,69l-.37-.11-.4-.13-.11-.11-.13-.13-.11-.27-.13-.11L48.33,68l-.13-.24-.11-.13L48,67.39l-.13-.14-.13-.13-.11-.24-.13-.13-.11-.24-.14-.14-.13-.11L47,66l-.11-.13-.13-.11-.13-.26-.11-.11-.14-.27L46.2,65l-.11-.13L46,64.62l-.13-.11-.11-.13-.13-.25L45.46,64l-.14-.24-.11-.13-.13-.13L45,63.25l-.13-.13-.13-.24-.13-.13-.11-.13-.13-.24-.14-.14-.11-.11L44,61.87l-.13-.11-.11-.26-.13-.11-.13-.14L43.32,61l-.11-.11-.13-.13L43,60.51l-.11-.13-.13-.25L42.58,60l-.11-.13-.13-.24-.14-.13-.13-.25L42,59.12V57.87l.11-2.11.13-2.26.14-2.13.13-2.24.11-2,.13-.51.13-.5.11-.49.13-.63.13-.49.11-.5.14-.51.13-.64.13-.48.11-.5.13-.51.13-.62.11-.5.14-.51.13-.5.11-.62.13-.5.13-.49.13-.5.11-.64.13-.5.11-.49.14-.5.13-.62.13-.5.11-.51.13-.5.13-.62.11-.5.13-.49.14-.5.11-.64.13-.48.13-.51.11-.5.13-.62.13-.51.14-.5.11-.51.13-.61.11-.51.13-.48.13-.51.13-.63.11-.51.13-.48.14-.51.13-.61.11-.51.13-.5.11-.51.13-.61.13-.51.14-.5.11-.49.13-.63.13-.51.11-.48.13-.51.13-.64.11-.48.13-.51.14-.5.13-.62.11-.5.11-.51.11-.5.13-.62.13-.5.13-.49.11-.5.13-.64.14-.5.11-.49.13-.5.13-.62.11-.5.13-.51.13-.24.25-.13.13-.13.24-.11L53.3,5l.26-.13.14-.13.24-.11.26-.13.24-.11.11-.13.27-.13L55.06,4l.26-.11.13-.13.25-.13.24-.13.26-.11.11-.13.26-.11L56.82,3l.24-.13.13-.13.24-.11.26-.13.25-.13.13-.13.24-.11L58.57,2l.25-.11.11-.13.26-.13.24-.13.26-.11.14-.13.24-.13L60.31,1l.26-.14.11-.13ZM43.08,58.75l6.38,8.88q4-.93,8.12-1.75l8.22-1.64c1.37-.26,2.72-.53,4.07-.82L74,62.55a9.1,9.1,0,0,0,1.89-.5A8.3,8.3,0,0,0,77,60.71q.57-.75,1.11-1.41c.36-.44.72-.91,1.09-1.41a13.28,13.28,0,0,1,1.13-1.3,2,2,0,0,0,.47-1.71c-.12-.7-.25-1.4-.38-2.1s-.27-1.4-.39-2.14q-.62-4-1.49-8.37c-.28-1.36-.53-2.75-.76-4.15s-.48-2.81-.76-4.22c-.18-.84-.46-2.25-.87-4.24a21,21,0,0,1-.56-4.11l2-1.91-.57-7.72L66.7,12.87l-.77,38.5L58.44,53a19.71,19.71,0,0,1,.29-3.36,24.43,24.43,0,0,0,.35-3.25q0-1.52.24-3.27c.13-1.18.26-2.29.37-3.34q.36-3.24.75-6.61t.64-6.67c.13-2.06.37-4.25.72-6.55a54.77,54.77,0,0,0,.64-6.56c0-.85.09-1.94.23-3.27s.28-2.43.43-3.33c.07-.49.14-1,.21-1.61a1.66,1.66,0,0,0-.39-1.4,12.16,12.16,0,0,1-.94-1,6,6,0,0,0-.9-.88c-2.35,1.23-4.32,2.35-5.91,3.34a6.59,6.59,0,0,1-1.53.83c-.15,0-.36.56-.63,1.66-.17.67-.32,1.32-.45,1.93s-.27,1.25-.45,1.91c-.64,2.55-1.23,5.09-1.78,7.6s-1.13,5.05-1.78,7.59-1.2,5-1.76,7.59S45.62,39.42,45,41.9c-.32,1.35-.61,2.62-.88,3.81a24.82,24.82,0,0,0-.5,4.16c-.05,1.45-.14,2.93-.29,4.43S43.08,57.29,43.08,58.75Z"/><path class="cls-1" d="M117.13.85l.57-.11h.35l.14.9.11.53.11.53.13.52.11.51.11.4.11.52.13.53.11.53.11.52.11.51.13.53.11.39.11.53.13.53.11.53.11.5.13.53.11.53.11.52.14.4.1.53.11.5.14.53.11.52.11.53.13.53.11.51.11.39.11.53.11.53.13.52.11.53.11.51.13.52.11.4v1.84l-.11,2.6L122,26.38l-.11,2.75-.11,2.59-.13,2.64-.11,2.22-.22.13-.11.27-.13.1-2.33.16-3,.11-2.58.13-.11.26-.11.4-.13.26-.09.4-.13.26-.11.4-.11.39-.13.27-.11.37-.11.26-.13.4-.11.26-.11.4-.13.26-.11.4-.11.24-.13.4-.11.39-.11.26-.14.4-.1.26-.12.4-.1.26-.14.4-.11.26-.11.38-.13.28-.11.37-.11.27-.13.39-.11.4-.11.26-.11.4-.13.24-.11.4-.11.26-.13.4-.11.26-.11.39-.11.27-.13.39-.11.4-.11.26-.14.38h.36l.46.13.35.13.35.13.46.13.35.14.36.13.35.13.11.53.13.13.11.13.11.13.13.13.11.25.11.15.13.11.11.13.11.26.13.16.11.11.11.13.13.26.09.14.13.13.11.13.11.26.14.13.11.14.11.13.13.26.11.13.11.14.13.13.11.26.11.11.13.13.11.16.11.24.13.13.11.13.11.13L115,59l.13.13.11.13.11.13.11.27.13.13.12.13.1.13.14.27.11.11.11.15.13.11.11.26.11.14v.79l-.11.52-.11.53-.13.4-.11.5-.11.53-.14.39-.1.53-.12.53-.13.5-.11.4-.11.53-.11.52-.13.4-.11.53-.11.5-.11.53-.13.4-.11.52-.11.53-.13.4-.11.52-.11.51-.13.53-.11.26-.11.13h-.35v.27h-.58l-.83-.14-.81-.13-.82-.13-.81-.13-.81-.13-.82-.14-.83-.13-.79-.13-.84-.13-.81-.11-.81-.15-.82-.12L102.1,72l-.81-.13-.84-.13-.79-.13-.83-.13L98,71.38l-.82-.13-.81-.13L95.58,71l-.82-.13-.83-.13-.79-.14-.84-.13-.81-.13-.81-.13-.82-.13-.35-.14-.24-.13-.33-.13-.24-.13-.24-.13-.36-.11-.21-.16L87.64,69l-.35-.13-.22-.13-.24-.13-.35-.13-.22-.14L86,68.24l-.33-.13L85.45,68l-.22-.13-.35-.14-.22-.13-.25-.13-.35-.13-.24-.13-.22-.13-.35-.14L83,66.81l-.24-.15-.33-.11-.25-.13L82,66.26l-.33-.1L81.38,66l-.24-.11-.35-.13-.22-.13-.24-.13L80,65.36l-.22-.13-.25-.13L79.16,65l-.24-.13-.22-.14-.35-.13-.22-.13-.24-.13-.35-.13-.36-.13v-.53l.11-1,.14-.93.11-1,.11-.92.13-1.06.11-.9.11-.92.13-1.06.11-.92.11-1,.11-.92.11-1,.13-.92.11-.92.11-1,.13-.92.11-.39h1l1.16.13,1.17.13L83.6,48l1.17.13h.11L86,48l1.16-.13h.35v-.4l.11-.92.14-1,.11-.92.11-.93.1-1,.14-.92.11-.93.11-1,.13-.92.11-.92.11-1,.13-.92.11-1.05V34l-.11-.13-.13-.13-.11-.13-.11-.13-.13-.13-.11-.14L88.24,33l-.14-.13-.1-.13-.11-.13-.11-.14-.14-.13-.11-.26L87.42,32l-.13-.13-.11-.14-.11-.11L87,31.46l-.13-.11-.11-.13-.11-.13L86.48,31l-.11-.13-.11-.13-.13-.13L86,30.43l-.09-.27L85.8,30l-.11-.11-.11-.15-.13-.11-.11-.13-.11-.14-.14-.13L85,29.13l-.1-.13-.11-.13-.11-.13-.14-.14-.11-.26-.11-.13-.13-.13-.11-.14L84,27.81l-.13-.13-.11-.13-.11-.13-.13-.13-.11-.14L83.25,27l-.13-.15L83,26.78l-.11-.26-.13-.14-.11-.13-.11-.13L82.44,26l-.14-.13-.11-.13-.11-.14L82,25.46l-.11-.13-.11-.13-.35-.14-.11-2.74-.13-2.62L81,17l-.11-2.75-.13-2.61v-2l.48-.11.57-.16.46-.1.6-.14L83.47,9,84,8.85l.57-.13.57-.13.49-.14.55-.13.59-.13.46-.13.6-.13.57-.14.59-.13.46-.13L90,7.4l.6-.13L91,7.14,91.6,7l.59-.13.46-.13.6-.11.57-.15.46-.11.59-.14.6-.13L95.93,6l.57-.13.59-.13.46-.13.57-.14.6-.13.46-.13.59-.13.57-.13.47-.14.59-.13.59-.13.46-.13.57-.13.6-.13.46-.14.57-.13.59-.13.47-.13.59-.11.57-.16.46-.11.59-.13.6-.13.46-.13.57-.13.59-.13.46-.14.58-.13.59-.13.46-.13.57-.13.6-.14.46-.13.59-.13.57-.13.46-.13.6-.13.59-.11ZM81.86,10.59c0,1.89.08,3.77.24,5.66s.22,3.74.2,5.54c0,1.41.24,2.11.71,2.11h2.68c.76,0,1.6,0,2.51-.08s1.82-.07,2.72-.07h.55l-3,25.11-3.58.4a8.09,8.09,0,0,1-2.38-.19A16.59,16.59,0,0,0,80,48.75L78.35,63.14a13.79,13.79,0,0,1,2.57.32c1,.22,1.94.37,2.66.48,1.9.27,3.62.56,5.16.85q2.63.51,5.2.85c1.72.23,3.46.49,5.22.8.82.15,1.68.29,2.58.44l2.6.42c1.41.25,2.16.24,2.27,0s.33-1.18.68-2.76q.34-1.61,1.4-5.54a29.85,29.85,0,0,0,1.1-5.14L96.5,49.39,106,22.32c1.14,0,2.29,0,3.45-.11s2.33-.13,3.53-.15l1.76,0q1.38,0,1.5-.36c0-.1,0-.72.07-1.85s.06-1.82.06-2.08q0-3.73.34-7.74c.23-2.66.34-5.29.34-7.86Z"/><path class="cls-1" d="M123.42,1.69l.13-.27h.5l.9.13.88.14.9.13.9.13.9.11.88.13.9.13.91.14.87.13.91.11.9.15,1,.11.9.13.9.13.9.11.88.16.9.11.9.13.9.13.88.13.9.14.9.11.9.13.88.13.27.13v.13l-.14.24v.27l.14.37.13.53.11.37.13.38.13.52.13.38.13.52.14.38.11.39.13.51.13.37.13.51.13.39.11.4.13.5.14.38.13.52.13.38.11.37.13.53.13.37.14.51.13.39.13.4.11.51.13.37.13.5.13.4.14.37.11.53.13.37.13.53.13.37.13.51.11.39.14.38.13.5.13.4.13.5.11.38L151,23v.27l-.13.5-.11.27-.13.24-.13.39-.13.25-.14.26-.11.26-.13.38-.13.26-.13.26-.13.25-.11.39-.14.24-.13.27-.13.26-.13.37-.11.27-.13.24-.13.26-.14.24-.13.4-.13.24-.11.27-.13.26-.13.37-.14.27-.13.26-.11.24-.13.38-.13.26-.13.24-.13.26-.11.4-.14.24-.13.27-.13.26-.13.24-.13.4-.11.24-.13.26-.14.27-.13.37-.13.26-.11.27-.15.24-.11.39L145,37l-.13.26-.11.24-.15.4-.11.26-.13.24-.13.27-.14.24-.13.39-.11.24-.13.27-.13.26-.13.37-.14.27-.11.26-.13.24-.13.4-.13.24-.13.26-.13.27-.11.37-.14.27-.13.24-.13.26-.13.26-.11.38-.13.26-.14.27-.13.24-.13.39-.11.24-.13.27-.13.24-.13.4-.14.24-.13.26-.11.26-.13.38-.13.26h.13l.37-.13.4-.13.37-.13.4-.11.5-.14.38-.13.39-.13.38-.13.39-.13.51-.11.39-.13.38-.14.37-.13.4-.13.37-.11.53-.13.37-.13h.13l.24.13.13.13.14.11.26.13.11.13.26.14.14.13.26.11.11.13.26.13.13.13.25.13.13.14.13.11.26.13.11.13.27.13.13.13.24.14.13.13.27.11.13.13.26.13.11.13.27.13.13.11.13.14.24.13.13.13.27.13.13.11.24.13.13.14.27.13.11.13.26.13.13.11.13.13.24.13.14.14.26.13.13.11.24.13.14.13.26.13.11.14.26.1.13.16.25.11.13.13.13.13.26.11.14.16.24.11.13.13.26.13.11.13.27.13.13.11.26.13.13.14.11.13.27.13.13.13.24.11.13.13.27.14.13.13.24.13.13.11V55l.13.4.13.37.14.51.11.39.13.51.13.37.13.4.13.5.11.38.14.53.13.37.13.39.13.51.11.4.13.5.14.37.13.4.13.51v.76l-.13.4-.13.37-.14.27-.13.37-.11.37-.13.4-.13.37-.13.4-.14.37-.11.27h-.26v.24l-.13.15-.38.11-.39.13-.51.13-.37.14-.4.13-.5.11-.37.13-.4.13-.4.13-.5.13-.37.12-.4.13-.37.13-.51.13-.39.13-.38.13-.52.11-.38.14-.37.13-.4.13-.5.13-.4.11-.37.13-.4.14-.5.13-.38.13-.39.11-.38.15-.5.11-.4.13-.37.14h-.53l-.37-.14-.37-.13-.4-.11-.37-.15-.4-.11-.24-.13-.4-.13h-1.27l-1,.13-.88.13-.9.11-.9.15-.88.11-.9.13-.9.14-.91.11-.87.15-1,.11-.9.13-.9.13-.88.14-.9.13-.9.11-.88.13-.9.13-1,.13-.88.13-.9.14-.9.11-.9.13h-.9l-.25-.13-.24-.11-.26-.14-.26-.13-.27-.13-.24-.13-.26-.13-.25-.11-.26-.13-.39-.14-.25-.13-.26-.13-.24-.11-.27-.15-.24-.11-.24-.14-.26-.13-.27-.11-.24-.15-.26-.11-.24-.13-.4-.13-.24-.14-.26-.13-.27-.11-.26-.13-.24-.13-.27-.13-.24-.14-.26-.11-.27-.13-.24-.13-.26-.13-.37-.13-.27-.13-.26-.12L113,68.7l-.27-.13-.26-.13-.24-.13-.27-.11-.24-.13-.26-.14-.27-.13-.87-.13v-.5l.11-.64.13-.77.13-.77.13-.64.13-.77.13-.76.11-.64.14-.77.13-.77.13-.77.13-.64.11-.77.13-.76.14-.64.13-.77.13-.77.11-.77.13-.64.13-.77.13-.76.14-.64.13-.77.11-.77.13-.77.13-.64.13-.74.14-.79.11-.77.13-.64.13-.75.13-.77.13-.77.11-.65.13-.75.14-.77.13-.64.13-.77.13-.77.11-.76.13-.77.14-.64.13-.77.13-.77.11-.77.13-.64.13-.76.13-.77.14-.77.13-.62.13-.77.11-.79.13-.74.13-.77.14-.77.13-.64.11-.77.13-.77.13-.77.13-.77.13-.77.11-.77.14-.76.13-.77.13-.88.13-.9.13-1,.11-1.27.11-1.41.13-1,.14-.37.13-.4.11-.37.13-.38.13-.26.13-.37.14-.4.11-.37.13-.4.13-.39.13-.38.13-.37.13-.4.11-.37.14-.26.13-.38.13-.39.13-.37.11-.4.13-.37.14-.38.13-.39.13-.4.11-.24.15-.4.11-.37.13-.39.14-.38.11-.37.15-.4L123,2.7l.13-.38.13-.37ZM111.55,66.4a27.66,27.66,0,0,0,3.74-.41l3.86-.65q4-.59,7.74-1.1l3.84-.51c1.28-.17,2.57-.36,3.89-.56.43-.06,1.07-.16,1.92-.31a3.9,3.9,0,0,1,1.82,0c.22.08.79.3,1.72.63a9.21,9.21,0,0,0,1.62.51,22.65,22.65,0,0,0,3.86-1l4.13-1.32,4.1-1.34a25.15,25.15,0,0,1,3.86-1.06l1.43-4.08-12-8.22-24.68,7.69a10.59,10.59,0,0,1,.78-2l1-2c.29-.62.61-1.29,1-2s.62-1.42.85-2c.53-1.37,1.12-2.72,1.78-4.07s1.28-2.7,1.87-4.07c1.14-2.69,2.38-5.4,3.7-8.12s2.52-5.44,3.57-8.14c.5-1.31,1.08-2.64,1.74-4s1.27-2.69,1.84-4,1.18-2.73,1.78-4.09,1.23-2.72,1.87-4.07q.19-.42-1.8-.81c-.48-.07-.92-.13-1.31-.16s-.81-.1-1.28-.19l-2.58-.36c-.85-.11-1.7-.23-2.56-.37l-5.43-.72a36.28,36.28,0,0,1-4.81-.79,28.82,28.82,0,0,1-1.15,3.51c-.51,1.34-.93,2.52-1.27,3.54-.21.59-.41,1.17-.62,1.74s-.41,1.16-.61,1.78a8.35,8.35,0,0,0-.5,2,19,19,0,0,1-.25,2.15q-.63,4.23-1.31,8.3c-.44,2.71-.89,5.44-1.33,8.2s-.88,5.44-1.38,8.16-1,5.45-1.45,8.18q-.27,1.65-1.39,8.59A60.17,60.17,0,0,1,111.55,66.4Z"/><path class="cls-1" d="M153,2.39l.11-1.58h.57l.81.11.79.11.79.11.93.11.81.13.81.11.79.11.93.11.76.13.82.11.79.11.92.11.79.13.82.09.79.13.92.11.81.11.79.11.82.13.92.11.79.11.79.11.81.13.93.11.79.11.81.11.81.11.9.14.82.11.79.11.81.11.9.13.82.11.79.11.81.11.92.13.79.09.79.13.82.11.81.11.92.11.79.13.8.11.81.11L191,6l.79.13.82.11.79.11.92.11.79.11.81.11.82.13.9.11.81.11.79.11.81.13.93.11.79.11v.93l.11.57.13.46.11.57.11.46.11.44.13.59.09.44.13.6.11.44.11.57L203,14l.13.46.11.57.11.46.11.57.13.47.11.46.11.57.11.46.11.57.13.46.11.44.11.6.11.46.14.55.11.46.11.46.11.57.11.46.11.57.11.47.13.46.11.57v.68l-.11.24-.13.22-.11.24-.11.33L205,27l-.11.22-.11.22-.11.24-.14.36-.11.22-.11.24-.11.22-.13.33-.11.24-.11.22-.11.24-.11.22-.13.35-.11.22-.11.24-.11.22-.13.33-.11.24-.11.22-.11.22-.13.24-.09.36-.13.22-.11.24-.11.22-.11.22-.13.35-.11.22-.11.24-.11.22-.13.35-.11.22-.11.13-.22.11-.14.11H188.45l.11.25.11.32.14.22.11.36L189,37l.11.35.11.22.13.33.11.35.11.35.11.22.13.35.11.35.11.33.11.22.13.35.09.36.13.35.11.22.11.33.11.35.13.35.11.22.11.35.11.35.13.22.11.33.11.35.11.36.11.22.13.35.11.35.11.33.11.24.14.33.11.35.1.35.12.22.1.35.14.33.11.35.11.22.11.36.11.35.13.33.11.24.11.33.11.35.13.35.11.22.11.35.11.35.13.33.11.22.11.36.11.35.11.33.11.24.13.33.11.35.11.35.11.22.13.35.11.35.11.33.11.22.11.35.13.36.11.33.11.24.11.35.14.33.11.35.11.22.11.35.13.35.09.33.13.22.11.35.11.36.11.32.13.25.11.35.11.33.11.35.13.22.11.35.11.35.11.33.11.22.13.35.11.36.11.35.11.22.13.35.11.33.11.35.11.22.13.35.09.35.13.33.11.22.11.35.11.35.14.36V69l-.14.46-.22.13-.11.11-.13.11-.22.11-.11.13-.11.09-.24.13-.11.11-.11.11-.24.11-.11.13-.22.11-.11.11-.13.11-.22.13-.11.11-.13.11-.22.11-.11.11-.13.11-.22.13-.11.11-.11.11-.25.11-.11.14-.22.11-.13.1-.11.11-.22.11-.11.14-.13.11-.22.11-.11.11-.13.13-.22.11-.11.11-.22.11-.13.13h-.68l-.24-.13-.22-.11-.22-.11-.24-.11-.22-.13-.11-.11-.25-.11-.22-.11-.24-.14-.22-.11-.24-.11-.22-.1-.24-.11-.22-.14-.24-.11-.09-.11-.24-.11-.22-.13-.24-.11-.22-.11-.24-.11-.22-.11-.25-.11-.22-.13-.11-.11-.24-.11-.22-.11-.22-.13-.24-.11-.22-.11-.24-.11-.22-.13L186.5,70l-.11-.13-.22-.11-.24-.11-.22-.11-.24-.13-.22-.11-.22-.11-.25-.11-.22-.13-.24-.12-.11-.1-.24-.11-.22-.11-.22-.14-.24-.11-.22-.11-.24-.11-.22-.13-.22-.11-.13-.11-.22-.11-.24-.13-.22-.09-.24-.13-.22-.11L180.9,67l-.25-.11-.22-.13-.24-.11-.11-.11-.22-.11-.24-.13-.11-.11-.22-.11-.13-.11-.11-.11-.22-.11-.13-.13-.22-.11-.11-.11-.11-.11-.24-.13-.11-.11L177.8,65l-.24-.11-.11-.11-.22-.14-.11-.1-.14-.11-.21-.12-.12-.13-.13-.11-.22-.11-.11-.11-.22-.13-.13-.11-.11-.11-.22-.11-.13-.11-.11-.11-.22-.13-.13-.11-.22-.11-.11-.11-.11-.13-.24-.11-.11-.11L174,62.2l-.24-.11-.11-.11-.24-.13-.12-.11-.1-.11-.22-.11-.11-.13-.25-.11-.11-.11-.11-.11-.24-.14-.11-.1-.11-.11-.24-.11-.11-.11-.22-.14-.13-.11-.11-.11-.22-.11-.13-.13-.11-.11-.22-.11-.11-.11-.24-.13-.11-.09-.11-.13-.24-.11-.11-.11-.22-.11-.14-.13v-.33l.14-.24.11-.11.11-.22.11-.24.13-.22.11-.11L170,57l.11-.22.13-.24.11-.12.11-.21.11-.25.11-.22.11-.13.13-.22.11-.22.11-.24.11-.22.13-.11.11-.24.11-.22.11-.24.11-.11.13-.22.11-.24.11-.22.11-.11.13-.24.11-.22.11-.25.11-.11.14-.22.11-.22.11-.24.11-.11.1-.24.12-.22.13-.24.11-.11.11-.22.11-.24.13-.22.11-.11.11-.24v-.9l-.11-.93-.11-.92-.13-.92-.11-.9-.11-1-.11-.92-.13-.92-.12-.9-.1-.92-.11-.93-.11-1-.11-.9v-.92l-.82.11-1.38.1-1.25.14L168,37l-1.25.11h-1l-.22-.11-.14-.11-.1-.14-.11-.1-.11-.11-.11-.11-.14-.25-.11-.11-.11-.11-.11-.11-.13-.1-.11-.14-.11-.11-.11-.11-.13-.11-.11-.13-.11-.11-.11-.11-.11-.11-.11-.24-.13-.11-.11-.11-.11-.11-.11-.13-.13-.11-.11-.11-.11-.11-.11-.13-.11-.11-.13-.11-.11-.11-.11-.11-.11-.11-.13-.24-.11-.11-.11-.11-.11-.14-.14-.1-.08-.12-.14-.11-.11-.13-.11-.08-.1-.14-.12-.11-.1-.11-.11-.11-.11-.13-.14-.22L160,31l-.11-.11-.11-.11-.11-.11-.13-.13-.11-.11-.11-.11-.11-.11-.13-.13L159,30l-.11-.11-.11-.11-.13-.11-.09-.24-.13-.11-.11-.11-.11-.13-.11-.11-.13-.11-.11-.11-.11-.13-.11-.09-.13-.13-.11-.11-.11-.11-.11-.11-.11-.25-.13-.11-.11-.11-.11-.13-.11-.11-.14-.11-.11-.11-.11-.11-.11-.13L156,26.8l-.08-.11-.14-.11-.11-.11-.11-.13-.11-.22-.13-.11-.11-.11-.11-.13-.11-.11-.13-.11-.11-.11-.11-.13-.11-.11-.11-.11-.13-.11-.11-.13-.11-.11-.11-.11-.13-.22-.11-.11-.11-.14-.11-.1-.11-.12-.13-.11-.11-.13-.11-.11-.11-.11-.11-.11-.14-.13-.1-.11-.12-.11-.1-.11-.14-.22-.11-.13-.46-.11v-.92l.11-1.83.13-1.71.11-1.71.11-1.74.11-1.71.14-1.83.1-1.73.12-1.72.1-1.71.14-1.71Zm47.44,5.87L154,1.91l-1.23,19.4,19.07-1.61,3.58,30-4.94,8.59,3.29,1.78,5.64,3c2,1.05,3.79,2,5.41,2.81a19.36,19.36,0,0,0,2.62,1.24l3.43-2.53c.17-.11.78-.54,1.8-1.28a8.83,8.83,0,0,0,1.54-1.22q-4.59-12.83-7.41-20.65t-5.27-14.57q-2.46-6.75-2.81-7.41h16.63Z"/></g></g></svg>