<svg xmlns="http://www.w3.org/2000/svg" viewBox="0 0 105 57.97"><defs><style>.cls-1{fill:#084a59;}</style></defs><g id="Layer_2" data-name="Layer 2"><g id="Layer_1-2" data-name="Layer 1"><g id="Layer_2-2" data-name="Layer 2"><g id="Layer_1-2-2" data-name="Layer 1-2"><path class="cls-1" d="M25.9,4,16,14.39,6.09,24.72.5,30.56a1.86,1.86,0,0,0-.35,2,1.75,1.75,0,0,0,.58.74,1.94,1.94,0,0,0,1.12.38c1.4.1,2.8.24,4.19.41L5.54,34a85,85,0,0,1,8.67,1.52A84.14,84.14,0,0,1,22.71,38q2.36.81,4.65,1.74l-.44-.18Q30.5,41,34,42.81l1.94,1a2,2,0,0,0,1.43.17,2,2,0,0,0,1.1-.87,1.93,1.93,0,0,0,.17-1.43,1.9,1.9,0,0,0-.86-1.1q-3.17-1.74-6.45-3.21c-2.32-1-4.68-2-7.08-2.81s-4.57-1.49-6.89-2.09-4.66-1.09-7-1.49-5-.74-7.57-1l-1,0,1.35,3.15,9.93-10.4L23,12.43l5.58-5.84a2,2,0,0,0,.53-1.32A1.92,1.92,0,0,0,28.53,4,1.85,1.85,0,0,0,25.9,4Z"/><path class="cls-1" d="M52.9,1.38,50.05,12,47.2,22.61,44.35,33.16,41.5,43.75l-2.85,10.6-.35,1.3a1.86,1.86,0,0,0,1.32,2.27,1.91,1.91,0,0,0,2.27-1.32L44.74,46l2.85-10.6,2.85-10.6,2.85-10.59L56.14,3.63l.35-1.31A1.86,1.86,0,0,0,55.17.06,1.88,1.88,0,0,0,52.9,1.38Z"/><path class="cls-1" d="M62.39,7l7.77,3.69L78,14.42l7.77,3.69,7.77,3.69,7.77,3.69,1,.47.4-3.4c-2.9,1.05-5.71,2.15-8.57,3.32s-5.84,2.49-8.71,3.83-5.49,2.62-8.19,4-5.39,2.87-8,4.39S64,41.19,61.38,42.82l-1,.6a2,2,0,0,0-.83,1.12,1.84,1.84,0,0,0,1.3,2.26,1.88,1.88,0,0,0,1.45-.2C66,44.25,69.78,42,73.6,39.88s7.71-4.13,11.66-6c2.21-1.06,4.45-2.08,6.7-3.06l-.44.19q4.68-2,9.49-3.86c.89-.34,1.79-.68,2.69-1a1.89,1.89,0,0,0,.38-3.42L96.33,19,88.52,15.3l-7.77-3.69L73,8,65.21,4.27l-1-.47a1.93,1.93,0,0,0-1.43-.17,1.85,1.85,0,0,0-1.27,2.28h0A1.87,1.87,0,0,0,62.39,7Z"/></g></g></g></g></svg>