<svg xmlns="http://www.w3.org/2000/svg" viewBox="0 0 247.04 74.36"><defs><style>.cls-1{fill:#084a59;}</style></defs><g id="Layer_2" data-name="Layer 2"><g id="Layer_1-2" data-name="Layer 1"><path class="cls-1" d="M0,2.88V1.47H.37l.4.13.5.14.4.13L2.18,2l.37.13.53.13.37.13L4,2.5l.5.11.4.14.5.13.4.13.5.13.38.13.52.11.38.14L8,3.65l.51.13.39.13L9.43,4l.37.13.53.13.37.14.51.13.39.11.51.13.37.13.53.13.5.14.38.13.5.11.4.13.5.13.38.13.52.13.38.11.5.14.51.13.39.13.51.13.39.11.51.13.37.14.51.13.39.13.51.13.37.11.53.13.51.13.37.14.53.13.37.11.51.13.39.13.51.13.37.14.51.11.52.13L27,9l.5.13.4.13.5.13.38.11.52.14.38.13.5.13.4.13.5.11.51.13.37.14.53.13.37.13.51.11.39.13.51.13.37.13.53.14.51.11.37.13.53.13.37.13.51.13.37.13.53.12.37.13.51.13.39.13.51.13.5.11.4.13.5.14.38.13.13.24.13.26.11.14.15.13.11.24.13.13.14.13.13.11.11.27.13.13.13.13.13.26.14.11.11.13.13.14L44,16l.13.13.13.11.11.26.13.12.14.15.13.11.13.26.13.13.11.14.13.24.14.13.13.13.13.11.11.27.13.13.13.13.13.26.14.11.11.13.13.14.13.26.13.11.13.13L47,20l.14.11.13.13.13.13.13.26.13.11.11.16.13.24.14.13.13.13.13.11.11.27.13.13.13.13.14.24.11.13.13.13.13.14.13.26.13.11.11.13.16.24.11.13.13.14.13.13.11.26.13.11.13.13.13.27.14.13.13.11.11.26.13.13.13.14.13.11.14.26.11.13.13.13.13.25.13.39.11.51.13.37.13.4.14.37.11.39.13.38.13.39L53,30l.13.37.11.4.14.37.13.4.13.35.13.39.11.4.13.5.13.38.14.37.13.4.13.39.11.38.13.37.13.4.14.5.13.4.11.37.13.37.13.4v.37l-.13.51-.13.26-.11.13-.13.14-.14.24-.13.13-.13.13-.11.24-.13.16-.13.11-.14.26-.13.11-.13.13-.11.26-.13.14-.13.13-.13.24-.14.13-.11.13-.13.25-.13.13-.13.13-.13.26-.11.11-.14.13-.13.27-.13.13-.11.13-.13.24-.13.14-.13.13-.11.24-.14.13-.13.13-.13.27-.13.11-.11.13-.13.26-.14.13-.13.14-.13.24-.13.13-.11.13-.13.24-.13.13-.11.14-.16.26-.11.11-.13.13-.13.27-.13.13-.13.11-.11.26-.14.13-.13.13-.13.25-.11.13-.13.13-.13.26-.14.11-.13.14-.11.26-.13.13-.13.11-.13.26-.13.14L47,50l-.11.24-.13.13-.13.13-.13.27-.13.11L46.3,51l-.14.26-.13.13-.13.11-.13.27-.11.13-.13.13-.13.24-.14.13-.13.14L45,52.8l-.13.11-.13.13-.13.27-.14.13-.13.11-.11.26-.13.13-.13.27-.13.11-.13.13-.11.26-.14.13-.13.11-.13.27-.13.13-.11.13-.13.24-.14.13-.13.14-.11.24-.15.13-.11.13-.13.27-.13.13-.11.11-.14.26-.13.13-.13.13-.13.25-.13.13-.11.13-.13.24-.14.13-.13.14-.13.26-.11.13L40.3,59l-.13.26-.14.11-.13.16-.11.24-.13.13-.13.13-.13.24-.13.14-.14.13-.11.26-.13.13-.13.11-.13.27-.13.11-.11.15-.14.24-.13.13-.13.14-.13.24-.11.13-.13.13-.13.24-.14.16-.11.11-.15.26L37,63.5l-.13.15-.13.25-.11.13-.16.13-.11.24-.13.13-.13.14-.13.24-.11.13-.13.13-.14.26-.13.11-.13.16-.11.24-.13.13-.13.11-.14.27-.13.13-.11.13-.13.24-.13.13-.13.13-.13.27-.14.11-.11.15-.13.24-.13.14-.13.1-.13.27-.11.13-.14.13-.13.24-.13.14-.13.13-.11.26-.13.11-.13.16-.14.24-.13.13-.13.24-.11.13-.13.13-.13.27-.11.11-.16.13-.11.26-.13.13-.13.11-.13.27-.11.13-.13.13-.14.24-.13.14-.13.13L30,73l-.13.11-.13.13-.13.27-.14.13-.11.11L29.2,74l-.13.13-.13.14-.24.11H27.29l-2.44-.11-2.42-.14L20,74l-2.44-.13-2.42-.13H13l-.27-.11-.26-.13-.24-.14L12,73.21l-.27-.13L11.47,73l-.26-.13L11,72.71l-.26-.13-.13-.14-.24-.13-.27-.11-.26-.13-.24-.13-.27-.13L9,71.67l-.24-.11-.26-.13-.25-.13L8,71.17,7.78,71l-.24-.11-.27-.13L7,70.66l-.24-.13L6.5,70.4l-.24-.13L6,70.16,5.76,70l-.27-.14-.26-.1L5,69.63l-.27-.11-.26-.13-.24-.13L4,69.13,3.71,69l-.26-.11-.26-.13-.25-.13-.26-.13-.26-.13-.24-.14-.25-.1L1.67,68l-.26-.13-.25-.11L.9,67.59l-.26-.11-.27-.13-.24-.14L0,67.08V65.54l.13-5.33.13-5.37.11-5.38L.53,44.1l.11-5.36.13-1h2V36.08l.13-2.2.14-2.28.11-2.16V27.77l-.25-.13-.13-.13-.13-.11-.26-.13-.11-.13L2.18,27l-.25-.13-.15-.11-.11-.13-.26-.13-.14-.13-.11-.25L1,23.55.9,21,.77,18.33.64,15.78.53,13.23.37,10.55.26,8,.13,5.43Zm16.88,64,2-2.72L21,61.39c1.36-1.84,2.72-3.67,4.08-5.47s2.73-3.62,4.12-5.45l3.15-4.21,5.56-7.43,5.3-7.1c1.57-2.11,2.36-3.17,2.36-3.19a22.21,22.21,0,0,0-1-3.45c-.65-2-1.07-3.25-1.24-3.78s-.64-1.89-1.27-3.69a21.22,21.22,0,0,1-1-3.45L1.16,2.88,2.29,25.73l2.19,1.54-.66,11.6h-2L1.16,66.42l11.69,5.89a19.16,19.16,0,0,1,1.89-2.68C15.62,68.55,16.33,67.63,16.88,66.88ZM16,45.53,14.77,22.15a18.69,18.69,0,0,1,3.41,1c1.78.65,3,1.09,3.68,1.31.44.16,1.69.58,3.75,1.25s3.09,1.14,3.09,1.39v4.59s-.62.73-1.86,2.12-2.62,2.91-4.15,4.59-3,3.24-4.32,4.69A27.86,27.86,0,0,1,16,45.53Z"/><path class="cls-1" d="M44.82,1.34,45,1.21h.5l.79.13.77.13.79.13.77.14.79.13.75.11.79.15.77.11.77.13.79.13.64.14.77.13.79.13.77.13.79.13.77.11.79.16.77.11.79.13.77.13.79.13.77.13.77.14.79.11.77.15.76.11.8.15.76.11.8.14.63.13.79.13.77.13.79.13.77.11.77.16.79.11L74,6l.79.11.77.13.77.13.79.14.77.13.77.13.79.13.4.13.11.11.15.13.11.27.13.13.13.13.14.27.13.13.13.24.13.13.13.13.11.27.16.13.11.26.13.13.13.14.13.24L82,10l.14.26.13.14.13.13.13.26.13.13.11.24.13.14.14.26.13.13.13.13.13.53.13.24.14.4.13.26.13.4.11.26.13.37.13.27.13.39.14.27.13.37.13.26.13.4.13.26.14.38.13.26.11.24.13.4.13.26.13.4.13.26.14.37.13.27.13.39.13.27.13.37.11.26.14.4.13.26.13.38.13.26.13.4.13.26.14.37.11.27.15.39.11.27.15.37.11.26.14.4.13.26.13.38.13.26.13.26.11.4.16.26.11.38.13.26.13.39.13.27.13.37.14.27.13.39v.77l-.13.13-.14.13-.13.27-.13.13-.13.24-.13.13L89.3,31l-.16.26-.11.13-.13.13-.13.24-.13.14-.13.26-.14.13-.11.13-.15.25-.11.15-.15.24-.11.13-.14.13-.13.27-.13.13-.13.24-.13.16-.13.11-.14.26-.11.13-.13.13-.13.27-.13.13-.13.24-.14.13-.13.13-.13.27-.13.13-.13.26-.11.13-.13.14-.14.24L85,37l-.13.26-.13.14-.13.13-.14.26-.13.13-.13.11-.13.27-.11.13-.13.26-.13.13-.14.14-.13.26-.13.11-.13.26-.51.14-.13.13h-.26l-.4-.13-.5-.14-.4-.11H80.6l.13.11.13.27.13.26.13.13.11.27.16.11.11.26.13.13.13.26.13.27.13.13.14.24.13.16.13.24.13.13.13.26.11.27.13.13.14.26.13.11.13.27.13.13.13.26.14.26.13.11.13.27.11.13.13.26.13.14.13.26.14.24.13.13.13.27.13.13.13.26.14.27.13.13.11.24.13.13.13.27.13.13L86,48l.14.26.13.14.13.24.13.13.13.26.11.13.14.27.13.26.13.11.13.27.13.13.13.39v8.68l-.13.13-.13.4-.26.13-.13.13-.25.14-.26.1-.13.14-.27.13-.26.13-.13.13-.24.13-.27.14-.13.13-.26.13-.27.13-.13.11-.26.13-.24.14-.13.13-.27.13-.26.13-.13.13-.27.13-.24.14-.13.13-.26.11-.14.15-.26.11-.26.13-.11.14-.27.13-.26.13-.13.13-.27.13-.26.13-.11.11-.26.16-.27.11-.13.13-.26.13-.27.13-.11.14-.26.13-.26.11-.14.15-.26.11-.26.15-.11.11-.27.14L77,66l-.13.13-.27.13-.13.13-.26.13-.24.14-.13.11-.27.13-.26.13-.13.13-.27.13-.24.14-.13.13-.26.13-.27.13-.13.13-.26.11-.27.13-.11.14-.26.13-.26.13-.14.13-.26.13L72,69l-.11.13-.27.13-.26.11-.13.13-.27.13-.26.14-.11.13-.26.13-.14.13-.26.13-.26.13-.11.14-.27.13-.26.11-.13.13-.27.13-.26.13-.13.14-.24.13-.27.13-.13.13-.26.13L67.1,72l-.13.11-.24.14-.26.13-.13.13-.27.13-.26.13-.13.14-.27.13-.24.13L65,73.3l-.26.11-.27.13-.13.13h-.77l-.53-.13-.5-.13-.53-.11-.53-.13L61,73l-.53-.13-.5-.14-.66-.13-.51-.13-.26-.13-.27-.13L58,72.11,57.77,72l-.38-.13-.26-.13-.26-.13-.27-.13-.26-.13-.24-.14-.27-.13L55.44,71l-.27-.13-.26-.11-.26-.13-.25-.14-.26-.13-.37-.13-.27-.13-.26-.13L53,69.79l-.27-.14-.26-.13-.24-.13-.4-.11-.26-.13L51.28,69,51,68.88l-.24-.13-.26-.13-.27-.13-.39-.13-.27-.14-.22-.13L49.11,68l-.26-.13-.27-.13-.37-.13-.27-.13-.26-.14-.26-.13-.27-.13-.24-.13-.26-.13-.4-.11L46,66.55l-.26-.13-.27-.13-.24-.13L45,66l-.27-.13-.37-.14-.26-.11-.27-.15-.13-2.06-.13-2.73-.13-2.59-.14-2.73-.13-2.59L43,50.08l-.15-2.73-.11-2.59-.13-2.7-.13-2.6-.14-2.74L42.23,34l-.13-2.57L42,28.7,41.84,26l-.14-2.59-.11-2.73-.13-2.59-.13-2.72-.13-2.73L41.07,10l-.13-2.73V5.87l.13-.11.13-.27.13-.13.13-.13.13-.13L41.7,5l.14-.14L42,4.72l.13-.26.13-.15.13-.11.14-.14.13-.13.13-.13.11-.26L43,3.43l.11-.16.13-.11L43.4,3l.13-.13.13-.26.13-.14.13-.13.14-.13.11-.11L44.32,2l.11-.11.13-.27.13-.13ZM50.52,66c1.09-.59,2.28-1.28,3.54-2.07s2.45-1.54,3.55-2.24c2.16-1.35,4.53-2.77,7.12-4.28l2.82-1.65q2.28-1.32,4.77-2.83C74,52,75.48,51,76.81,50.19s2-1.37,2-1.54l0-9.3L57.24,48.67l-2.07-13L61.3,36l2-2-1.85-9.36-7.09-.35L52.47,16.7l16,3.32-.28,2,5.32,1.58A21.53,21.53,0,0,0,75,21.72q1.34-1.81,2.87-3.93l2.79-3.89c.84-1.18,1.26-1.78,1.26-1.79a5.55,5.55,0,0,0-1-1.65c-.67-.92-1.1-1.52-1.27-1.78a2.45,2.45,0,0,0-1.93-.93c-.93-.1-1.76-.21-2.49-.35-1.63-.26-3.27-.53-4.94-.82s-3.32-.56-5-.82c-.64-.09-2-.29-4-.61s-4.16-.65-6.39-1-4.28-.72-6.12-1a21,21,0,0,1-3.16-.71,6.14,6.14,0,0,0-1.13,1.15c-.43.54-.81,1-1.12,1.29a12.48,12.48,0,0,0-1,1.3,3.32,3.32,0,0,0-.2,2.09c.15,1.3.26,2.79.33,4.46s.13,3.17.18,4.5c.06,1.52.14,3.05.24,4.57s.15,3,.13,4.51c0,1.05,0,2.57.14,4.55s.22,3.46.37,4.41a15.78,15.78,0,0,1,.14,2.23c0,1,0,1.76,0,2.28A19.82,19.82,0,0,0,43.79,42a19.82,19.82,0,0,1,.13,2.27c0,1.51.07,3,.19,4.52s.19,3,.19,4.56c0,1,.05,2.51.15,4.55s.22,3.5.35,4.41c.22,1.36.23,2.08,0,2.16s.42.27,1.88.61c.68.16,1.32.33,1.94.5S49.87,65.88,50.52,66ZM71.13,35.42v-.11l-.16.11Zm0,0,.13.26.13.14.13.13.13.26.13.13.14.13.11.25.15.13.11.13.13.26.13.14.14.26.13.13.13.13.13.27.13.11.11.13.16.26.11.13.13.4.13.64.13.26.4-.13.26-.13.24-.13.4-.14.26-.11.27-.15.37-.11.26-.13.27-.13.39-.14.24-.13.27-.13.28-.07-.39-.06-.27-.13-.13-.11L77,38l-.13-.11-.13-.26-.14-.13-.13-.27-.13-.13-.13-.26-.11-.24-.13-.14-.53-.13-.53-.13-.63-.13L73.59,36,73,35.82l-.66-.14-.64-.13Z"/><path class="cls-1" d="M111.42,1.38l.4-.08.39.06.05.51.11.15.11.27.09.28.11.26.08.14.11.28.09.27.11.28.11.13.09.29.09.26.11.27.11.15.08.26.09.27.13.15.09.26,0,.27.4-.09.39-.07.53-.06.53-.07.52-.06.53-.07.53-.07.39-.06.53-.07.37,0,0,.37,0,.26.11.27.08.26.11.16.11.28.09.26.09.27.11.28.09.27.11.26.09.27.08.28.11.26.09.29.11.13.09.29.11.26.09.26.08.27.11.28.09.27.09.28.11.27.09.26.11.29.09.13.1.26.09.29.11.26.09.26.09.29.11.26.09.29.08.26.11.27.11.15.09.26.09.27.11.28.09.27.09.28.1.27.09.26.09.26.11.29.09.26.11.16.11.26.09.26.11.29.08.26.09.27.11.28.09.27.09.26.09.29.13.13.09.26.08.29.11.26.09.29.09.26.11.26.09.27.08.28.11.27.09.28.11.14.09.28.11.26.09.27.11.26.09.29.08.26.11.29.07.39,0,.37-.4,2.16L125,30.43l-.39,2.16-.4,2.26-.2,1.54.09.26.09.26.13.16.09.26.11.16.09.28.11.27.08.13.11.28.11.13.09.29.11.26.11.14.09.28.11.13.11.29.09.26.11.13.08.29.14.13.08.26.09.29.11.15.11.27.11.15.09.27.11.26.09.15.11.27.11.15.09.26.08.27.14.15.08.27.11.15.09.26.11.27.11.15,0,.66-.41,4.35-.29,2.29-.17.37-.16.11-.15.24-.13.11-.16.11-.15.11-.13.11-.16.11-.15.24-.15.11-.14.11-.13.11-.15.13-.13.09-.18.26-.13.09-.16.11-.13.13-.15.11-.16.25-.15.11-.13.08-.15.14-.16.11-.13.1-.15.25-.16.11-.13.11-.15.11-.14.11-.15.11-.15.24-.16.11-.13.11-.15.11-.13.11-.16.24-.15.11-.13.13-.16.09-.15.11-.13.13-.18.22-.13.13-.15.11-.16.24-.15.11-.13.09-.16.26-.15.09-.16.24-.15.11-.15.25-.13.11-.18.24-.13.11-.16.24-.15.11-.13.13-.18.22-.13.11-.18.24-.13.11-.15.24-.15.11-.16.24-.15.11-.16.25-.15.11-.13.11-.16.24-.15.11-.15.24-.16.11-.15.24-.15.11-.16.24-.15.11-.16.24-.13.11-.15.11-.16.25-.15.11-.15.24-.13.11-.16.24-.15.11-.16.24-.15.11-.15.24-.16.11-.13.11-.18.24-.13.11-.15.24-.15.11-.27.09-.15.11-.13.11-.16.13-.13.11-.15.09-.14.13-.15.11-.15.11-.14.11-.15.11-.13.11-.15.11-.14.11-.15.11-.13.11-.16.13-.15.09-.13.11-.16.13-.13.11-.26.09-.15.11-.16.11-.13.11-.15.11-.14.13-.15.09-.13.13-.15.11-.14.11-.15.11-.13.11-.16.11-.13.11-.15.11-.13.11-.16.11-.13.11-.15.11-.16.11-.13.13-.26.09-.16.11L106,72l-.13.11-.16.11-.13.11-.15.13-.13.09-.16.11-.13.13-.15.11-.16.11-.13.11-.15.11-.13.11-.16.11-.13.11-.15.11-.14.11-.15.11-.15.11-.4.09-.5-.07-.36-.17-.24-.16-.24-.15-.37-.2-.24-.15-.25-.16-.35-.17-.24-.16-.24-.15-.37-.2-.25-.15L99.18,72l-.37-.17-.24-.16-.24-.15-.38-.2-.24-.15L97.49,71l-.37-.18-.24-.18-.24-.13-.38-.2L96,70.18,95.8,70l-.37-.18-.24-.17-.25-.16-.37-.17-.24-.16L94.09,69l-.35-.18-.25-.17-.24-.16-.37-.17-.22-.16-.26-.15L92,67.87l-.24-.17-.24-.16-.37-.17L91,67.21l-.27-.15-.35-.18-.24-.17-.24-.16-.24-.15-.25-.15-.24-.18-.35-.17-.24-.16-.24-.15-.24-.16-.25-.17-.24-.15L87.34,65l-.22-.15-.24-.18-.22-.15-.24-.16-.24-.15L85.94,64l-.25-.15-.24-.15-.24-.18L85,63.35l-.22-.16L84.51,63l-.38-.18-.24-.17-.24-.16-.24-.15-.24-.17-.25-.16-.21-.15-.25-.16-.24-.17L82,61.41l-.24-.15-.24-.15-.25-.18L81,60.78l-.27-.16-.22-.15-.24-.18-.24-.15L79.83,60l-.25-.16.11-.77.2-.63.2-.62.22-.61.22-.75.2-.62L81,55.2l.22-.75.22-.62.19-.63.22-.75.22-.62.2-.61.2-.62.24-.77.2-.61.22-.62.22-.74.22-.64.2-.62.19-.61.25-.75.19-.64.22-.61.18-.51L85,43.4l.4,0,0-.24-.24-.05L85.08,43l-.24-.17-.11-.14-.11-.13-.24-.17-.11-.13L84,42.1,83.91,42l-.24-.18-.11-.13-.24-.15-.11-.16L83,41.2,82.86,41l-.24-.15-.11-.13-.11-.15-.24-.16-.11-.15-.25-.16L81.69,40l-.24-.17-.11-.13-.24-.16-.24-.17-.11-.14L80.66,39l-.13-.13-.09-.27-.11-.15-.09-.27L80.13,38,80,37.73l-.11-.16-.08-.26L79.74,37l-.11-.13-.11-.26-.11-.16-.09-.26-.11-.15-.11-.27L79,35.64l-.09-.26-.11-.16L78.68,35l-.11-.13-.08-.29-.11-.13-.09-.26L78.16,34l-.09-.26L78,33.57l-.09-.26-.13-.15-.09-.27-.11-.15-.09-.26-.11-.16-.11-.26-.08-.27L77,31.64,77,31.38l-.11-.13L76.73,31l-.11-.13-.09-.29-.11-.13-.11-.26L76.2,30l-.09-.26L76,29.58l-.11-.27-.08-.15-.11-.27-.11-.13-.09-.28-.11-.14,0-.39.13-.11.16-.11.13-.11.15-.11.16-.24.13-.11.15-.11.16-.11.15-.24.15-.11.14-.11.15-.11.15-.25.16-.1.13-.11.15-.14.16-.22.13-.13.15-.09.13-.11.18-.24.13-.11.16-.13.13-.11.17-.24.14-.11.15-.11.13-.11.15-.11.16-.24L80,23.6l.15-.11.16-.11.15-.24.13-.11.16-.11.15-.11.16-.24.13-.11.15-.11.13-.11.18-.25.13-.11.15-.1.14-.11.17-.25.13-.11.16-.13.13-.09.15-.11.16-.24.13-.11.15-.13.13-.11.18-.24.13-.11.16-.09.13-.13.17-.22.14-.13.15-.11.15-.11L84.7,19l.16-.11.15-.11.13-.11.18-.24.13-.11.16-.12.13-.1.15-.11.15-.25.16-.11.13-.11.15-.11.16-.24.13-.11L86.9,17l.13-.11.18-.24.13-.11.16-.11.13-.13L87.8,16l.13-.11.16-.11.13-.11.15-.24.16-.11.15-.13.13-.11.16-.24.15-.11.15-.09.14-.13.15-.11.15-.25.14-.11L90,14l.13-.1.18-.25.13-.11.15-.11.14-.11.17-.24.13-.11.16-.11.13-.11.15-.24.16-.11.13-.11.15-.11.16-.24.15-.11.13-.11.15-.11.16-.11.15-.24.13-.11L93.1,11l.15-.11.16-.24.13-.11.15-.11.13-.13.18-.22.13-.14.15-.11.14-.11.17-.24.13-.09.16-.13L95,9.16l.15-.24.16-.11.13-.11.15-.11.16-.24.15-.11L96,8.13,96.2,8l.13-.11.17-.24.14-.11.15-.11.13-.11.16-.24L97.23,7l.15-.11.13-.11.18-.24.13-.11L98,6.31l.13-.11L98.26,6l.16-.11.13-.11.15-.13.15-.22L99,5.27l.13-.11L99.29,5l.14-.11.17-.22.13-.13.16-.11.13-.11.15-.24.16-.11.13-.11.15-.11.16-.24.15-.11.15-.11.14-.11.15-.11.39-.07.4-.09.53-.06.39-.09.4-.07.53-.06.39-.09.42-.09.4-.06.52-.07.4-.06.39-.09.53-.07.4-.09.39-.06.53-.07.39-.09.42-.06.51-.07.41-.09.4-.06.4-.09ZM76.79,28.52s.76,1.56,2.27,4.6,2.37,4.76,2.59,5.16l26.06-.18A14.07,14.07,0,0,1,106,39.4l-3.55,2.51q-1.92,1.35-3.54,2.46c-1.07.74-1.61,1.11-1.61,1.09-.3,0-.6-.41-.91-1.13s-.57-1.1-.74-1.13a41.51,41.51,0,0,0-5.19.59,37,37,0,0,0-4.92.86L80.84,59.28l9.18,6a14,14,0,0,0,2-1.34l2-1.56,1.94-1.46,2-1.48c.4-.31,1.09-.8,2.08-1.45a12.41,12.41,0,0,0,1.9-1.45c1-1.15,2.12-2.39,3.3-3.74q3.69-4.24,6.7-7.38a35.15,35.15,0,0,1,3.69-3.31,26.57,26.57,0,0,0,3.58-3.35q.15-1.38.24-2.58c.06-.8.15-1.65.26-2.54a21.82,21.82,0,0,0,.24-2.47c0-.21-.78-.31-2.26-.28a18.6,18.6,0,0,1-2.46,0l-2.41-.15c-.8,0-1.63-.07-2.52-.08a20.76,20.76,0,0,1-2.38-.14,36.27,36.27,0,0,0-4.94-.21A29.36,29.36,0,0,1,98.09,30a36,36,0,0,0-4.86-.2,32.12,32.12,0,0,1-5-.28l17.41-12-1.41,9,9.56-1,3.4-18.72-5.4.7-.55-4.85a14.93,14.93,0,0,0-3,.39c-1.34.28-2.37.47-3.07.58-.53.08-1,.17-1.52.26s-1,.16-1.45.22a1.91,1.91,0,0,0-1.15.7,12.1,12.1,0,0,1-1,1q-2,1.8-4,3.75t-3.86,3.81c-.4.4-1.42,1.38-3.08,3s-3.4,3.24-5.24,5-3.49,3.37-5,4.81A18.22,18.22,0,0,0,76.79,28.52Z"/><path class="cls-1" d="M155.39,1,156,.92h.35l.14.9.1.53.12.53.13.53.11.5.11.4.11.52.13.53.11.53.11.53.11.5.13.53.11.39.11.53.13.53.11.53.11.5.13.53.11.53.11.52.13.4.11.53.11.5.14.53.11.53.11.52.13.53.11.51.11.39.11.53.11.53.13.52.11.53.11.51.13.52.11.4v1.85l-.11,2.59-.13,2.63-.11,2.75-.11,2.59-.13,2.64-.11,2.22-.22.13-.11.27-.13.11-2.33.15-3,.11-2.57.13-.11.26-.11.4-.13.26L151,39l-.13.26-.11.4-.11.39-.13.27-.11.37-.11.27-.13.39-.11.26-.11.4-.13.26-.11.4-.11.24-.13.4-.11.39-.11.27-.14.39-.11.26-.11.4-.11.26-.13.4-.11.26-.11.38-.13.28-.11.38-.11.26-.13.4-.11.39-.11.26-.11.4-.13.24-.11.4-.11.26-.13.4-.11.26-.11.39-.11.27-.13.39-.11.4-.11.26-.14.38h.36l.46.13.35.13.35.13.46.13.35.14.35.13.36.13.11.53.13.13.11.13.11.13.13.13.11.25.11.15.13.11.11.13.11.27.13.15.11.11.11.13.13.26.09.14.13.13.11.13.11.26.13.14.12.13.1.13.14.26.11.13.11.14.13.13.11.26.11.11.13.13.11.16.11.24.13.13.11.13.11.14.11.26.13.13.11.13.11.13.11.27.13.13.11.13.11.13.14.27.11.11.11.15.13.11.11.26.11.14V62l-.11.52-.11.53-.13.4-.11.5-.11.53-.14.39-.11.53-.11.53-.13.51-.11.39-.11.53-.11.53-.13.39-.11.53-.11.5-.11.53-.13.4-.11.52-.11.53-.13.4-.11.52-.11.51-.13.53-.11.26-.11.13h-.36v.27H151l-.83-.14-.81-.13-.82-.13-.81-.13-.81-.13-.82-.14-.83-.13-.79-.13-.84-.13-.81-.11-.81-.15-.82-.11-.81-.14-.81-.13-.84-.13-.79-.13-.83-.13-.82-.14-.81-.13-.81-.13-.82-.13L133,71l-.83-.13-.79-.14-.84-.13-.81-.13-.81-.13-.82-.13-.35-.13-.24-.14-.33-.13-.24-.13-.24-.13-.36-.11-.22-.16-.24-.11-.35-.13-.22-.13-.24-.13-.35-.13-.22-.14-.24-.13-.33-.13-.24-.13-.22-.13-.36-.13-.21-.14-.25-.13-.35-.13-.24-.13-.22-.13-.35-.14-.24-.11-.24-.15-.33-.11-.25-.13-.24-.15-.33-.11-.24-.16-.24-.11-.35-.13-.22-.13-.24-.13-.36-.14-.22-.13-.24-.13-.35-.13-.24-.13-.22-.14-.35-.13-.22-.13-.24-.13-.35-.13-.36-.13V63.7l.11-1,.14-.93.11-1,.11-.92.13-1.06.11-.9.11-.92.13-1.06.11-.92.11-1,.11-.92.11-1L117,51l.11-.92.11-1,.13-.92.11-.39h1l1.16.13,1.17.13,1.16.13,1.16.13h.11l1.15-.13,1.16-.13h.35v-.39l.11-.93.14-1,.1-.92.11-.93.11-1,.14-.92.11-.92.11-1,.13-.92.11-.92.11-1,.13-.92.11-1.05v-.9L127.2,34l-.13-.13-.11-.13-.11-.13-.13-.13-.11-.14-.11-.13-.14-.13-.11-.13-.11-.13-.1-.13-.14-.14-.11-.26-.11-.13-.13-.13-.11-.14-.11-.11-.11-.15-.13-.11L125,31.4l-.11-.13-.13-.14-.11-.13-.11-.13-.13-.13-.11-.13-.09-.27-.13-.13L124,30.1l-.11-.15-.13-.11-.11-.13-.11-.13-.14-.14-.11-.13-.11-.13-.11-.13-.1-.13-.14-.14-.11-.26-.11-.13-.13-.13-.11-.14-.11-.13-.13-.13-.11-.13-.11-.13-.13-.13-.11-.14-.11-.11-.13-.15-.11-.11-.11-.26-.13-.14-.11-.13-.11-.13-.11-.13-.14-.13-.11-.13-.11-.14-.13-.13-.11-.13-.11-.13-.35-.13-.11-2.75-.13-2.62-.11-2.74-.11-2.75-.13-2.61v-2l.48-.11.57-.15.46-.11.6-.14.57-.15.48-.11.57-.13.57-.13.49-.13.55-.14.59-.13.46-.13.6-.13.57-.13.59-.14.46-.13.57-.13.6-.13.46-.13.57-.13.59-.14.46-.13.6-.11.57-.15.46-.11.59-.13.6-.14.46-.13.57-.13.59-.13.46-.13.57-.14.6-.13.46-.13.59-.13.57-.13.46-.13.6-.14.59-.13.46-.13.57-.13.6-.13.46-.14.57-.13.59-.13.46-.13.6-.11.57-.15.46-.11.59-.14.6-.13.46-.13.57-.13.59-.13.46-.14.58-.13.59-.13.46-.13.57-.13.6-.13.46-.14.59-.13.57-.13.46-.13.6-.13.59-.11Zm-35.27,9.74q0,2.84.24,5.67c.15,1.89.22,3.73.2,5.53,0,1.41.24,2.11.71,2.11H124c.76,0,1.6,0,2.51-.08s1.82-.07,2.72-.07h.55l-3,25.11-3.59.4a8,8,0,0,1-2.37-.19,16.59,16.59,0,0,0-2.48-.32l-1.67,14.4a13.73,13.73,0,0,1,2.57.31c1,.22,1.94.37,2.66.48,1.9.27,3.62.56,5.16.85q2.63.51,5.2.85c1.72.23,3.46.49,5.22.8.82.15,1.68.29,2.58.44l2.6.42c1.41.25,2.16.24,2.27,0s.33-1.18.68-2.76q.34-1.6,1.4-5.54a29.85,29.85,0,0,0,1.1-5.14l-13.29-4.46,9.45-27.07c1.14,0,2.29,0,3.45-.11s2.33-.12,3.53-.15l1.76,0q1.38,0,1.5-.36c0-.1,0-.72.07-1.84s.06-1.83.06-2.09q0-3.73.34-7.74c.22-2.66.34-5.28.34-7.86Z"/><path class="cls-1" d="M172.68.31l.11-.16.44-.06.16.11.3.09.18.11.31.06.17.11.31.09.15.11.31.09.31.06.18.11.3.09.16.11.33.09.15.11.31.06.17.11.31.09.16.11.3.09L178,2l.31.09.15.09.33.08.15.11.31.09.18.11.3.07.18.11.31.08.15.11.31.09.17.11.31.09.16.09.3.09.18.11.31.08.15.11.33.07.31.09L183,4l.31.08.18.11.3.09.16.11.3.07.18.11.31.09.17.11.31.08.18.09.28.09.18.11.31.09.17.11.29.09.17.11.31.06.18.11.3.09.16.11.33.06.15.11.18.11.17.25.22.37L189,7l.2.24.19.24.18.24.2.25.17.22.2.24.22.37.18.24.19.22.2.24.18.25.2.24.17.22.2.24.2.24.19.37.2.22.2.25.18.24.19.24.18.22.2.24.19.24.2.35.2.27.18.22.19.24.18.22.2.26.2.22.17.24.22.38.2.22.17.24.2.24.2.24.18.22.19.24.18.25.2.24.22.35.17.24.2.24.2.24.17.22.2.24.18.25.19.24.2.37.2.22.2.24.17.25.2.24.18.22.2.24.19.24.2.35.2.24.2.24.17.25.13.77,0,.55,0,.52-.07.55,0,.55-.05.55-.06.53,0,.55,0,.52-.07.55,0,.55-.07.42,0,.53-.07.55,0,.52-.05.55-.06.55,0,.53-.05.55-.06.53,0,.55,0,.55-.05.52-.06.55-.05.55,0,.55-.07.53,0,.55,0,.52-.07.55,0,.55-.05.53-.06.55,0,.55,0,.55-.07.53,0,.55-.09.28-.29,0,.07.39-.26.18-.29,0,.2.22.15.11.2.24.15.11.18.11.15.11.2.22.18.11.15.11.2.24.15.11L200,45l.15.09.2.24.15.11.18.11.2.24.15.11.18.09.15.11.2.24.15.11.18.11.17.24.18.09.15.11.18.11.18.24.17.11.18.09.17.24.18.11.15.11.18.11.2.22.15.11.15.11.2.24.18.11.15.11.18.11.19.22.2.38.07.39-.09.27-.09.3-.11.27-.09.28-.11.29-.08.28-.09.29-.13.15-.09.29-.11.28-.09.27-.11.28-.09.29-.08.28-.11.29-.09.29-.09.26-.11.29-.09.28-.13.16-.09.28-.11.29-.09.28-.08.29-.11.26-.09.29-.11.28-.09.29-.11.28-.09.29-.11.26-.08.31-.11.15-.11.27-.09.28-.09.29-.11.29-.09.28-.11.29-.09.28-.26.16-.11.15-.13.15-.24.2-.42.2-.26.15-.27.2-.41.2-.25.15-.41.2-.27.2-.26.15-.4.22-.26.15-.42.2-.26.2-.24.15-.42.2-.26.2-.42.2-.27.15-.39.22-.26.18-.27.17-.42.2-.24.18-.41.19-.27.18-.26.18-.4.19-.26.18-.42.2-.26.17-.27.18-.39.2-.27.17-.41.2-.27.18-.24.17-.42.2-.26.17-.42.2-.24.18-.26.17-.42.2-.26.18-.4.2-.26.17-.27.18-.41.19-.27.18-.39.2-.27.17-.26.18-.42.2-.24.17-.42.2-.26.2-.26.15-.42.2-.24.2-.42.2-.26.15-.27.2-.39.2-.27.17-.42.2-.26.17-.86.14-.43-.07-.31-.09-.46,0-.31-.09-.46-.07-.31-.08-.44-.05-.31-.11-.46,0-.31-.09-.44-.06-.33-.09-.3-.07-.44-.06-.31-.09-.46-.07-.31-.06-.44-.07-.33-.09-.44-.06-.31-.09-.46,0-.3-.08-.44-.07-.31-.09-.46-.06-.31-.07-.44-.07-.33-.08-.44-.07-.31-.09-.46,0-.31-.09-.46-.06-.28-.09-.46-.05-.31-.08-.46-.07-.31-.09-.46,0-.29-.09-.46-.07-.31-.08-.31-.09-.46-.07-.3-.06-.47-.07-.28-.09-.31-.08-.46-.05L160.2,70l-.31-.09-.46-.06-.3-.09-.44-.06-.31-.07-.33-.09-.44-.06-.31-.09-.28-.09-.47,0-.3-.09-.18-.11-.2-.35-.24-.51-.22-.5-.24-.49-.24-.5-.24-.51-.22-.48-.24-.51-.25-.48-.22-.51-.24-.48-.24-.51-.24-.48-.22-.5-.24-.51-.24-.48-.22-.51-.24-.48-.25-.51-.24-.48-.22-.51-.24-.48-.24-.5-.2-.38-.24-.48L150,56.4l-.22-.5-.24-.48-.25-.51-.22-.48-.24-.51-.24-.48-.09-.53.09-.29.11-.28.09-.29.11-.26.09-.29.11-.28.06-.42.09-.28.09-.29.11-.26.09-.31.11-.27.08-.28.11-.29.09-.28.07-.42.11-.26.09-.29.08-.28.11-.29.09-.29.11-.28.09-.29.11-.26.09-.29.06-.41.11-.29.09-.29.11-.26.09-.31.09-.26.1-.29.09-.28.11-.29.07-.41.09-.29L152,42l.08-.29.11-.28.09-.29.09-.29.11-.28.09-.27.09-.41.08-.29.09-.28L153,39l.09-.29.11-.28.09-.29.09-.26.1-.29.09-.28.09-.42.09-.29.11-.26.09-.28.08-.29.11-.29.09-.28.09-.29.11-.28.07-.4.11-.28.08-.29.11-.29.09-.28.09-.29.11-.28.09-.27.08-.28.11-.29.07-.41.11-.27.09-.28.11-.29.09-.29.08-.28.11-.29.09-.28.11-.27.07-.41.08-.29.12-.28.08-.29.11-.26.09-.31.09-.27.11-.28.09-.29.08-.41.09-.29.09-.26.09-.29.09-.28.11-.29.08-.29.09-.28.11-.29.09-.26L158,23l.09-.28.1-.29.09-.29.09-.28.11-.29.09-.26.09-.29.11-.28.06-.42L159,20l.09-.29.11-.26.09-.29.09-.28.11-.29.08-.29.11-.28.07-.42.11-.26.09-.29.08-.28.11-.29.09-.29.09-.28.11-.29.09-.26.11-.29.06-.41.11-.29.09-.29.09-.26.11-.28.09-.29.09-.29.1-.28.09-.29.09-.42.09-.28.11-.26.09-.29.08-.29.11-.28.09-.29.11-.28.09-.27.07-.41.11-.29.08-.28.11-.29.09-.29.09-.26L163,7.6l.09-.26.26-.18.26-.17.14-.16.26-.17.24-.18.26-.17.27-.18.13-.15.26-.18.27-.18.26-.17.27-.18.11-.15.26-.18.26-.17.27-.18.26-.17.11-.16.26-.17.29-.18.26-.17.24-.18.14-.15.26-.18.26-.18.27-.17.26-.18.11-.15.26-.18.27-.17.26-.18.11-.15.29-.18.26-.17.24-.18.27-.18.13-.15.26-.18.27-.17.26-.18ZM149.85,53c.77,1.69,1.55,3.36,2.37,5s1.61,3.32,2.4,5q2.5,5.3,2.63,5c.08-.16,1.8.24,5.17,1.22q2.18-1.38,4.8-2.85l5-2.79c1.67-.93,3.3-1.87,4.89-2.84s3.22-1.91,4.89-2.83q1.23-.66,2.43-1.38c.8-.47,1.62-1,2.47-1.43a3.59,3.59,0,0,0,1.85-1.81c.13-.41.27-.8.43-1.18s.32-.79.47-1.23.81-2.27,1.9-5.21,1.63-4.48,1.61-4.62a13.32,13.32,0,0,0-2.1-1.81c-1.37-1.07-2.15-1.66-2.36-1.77l-15.53,2.93-1.89,6.74,6.7-.64L165.45,55.9l7.67-34.72,3.34,15.34A20.82,20.82,0,0,0,180,34.44l3.6-2.4c.93-.62,1.39-1.08,1.4-1.4s.07-1,.19-2.18c.08-1,.22-2.4.39-4.33.13-1.42.27-2.86.41-4.3s.27-2.87.4-4.27c.09-.9.2-2.4.32-4.51a20.64,20.64,0,0,1,.5-4.11l-14-5.51a28.49,28.49,0,0,1-3,2.22,32.92,32.92,0,0,0-3,2.19c-1.5,1.24-2.44,2-2.82,2.24s-.8,1.39-1.27,3.41a49.5,49.5,0,0,1-2.19,6.91,54.71,54.71,0,0,0-2.23,6.91,58.82,58.82,0,0,1-2.21,7,53.92,53.92,0,0,0-2.16,6.89q-.33,1.44-1,3.39c-.44,1.3-.83,2.45-1.19,3.46-.39,1.17-.76,2.34-1.09,3.52S150.28,51.84,149.85,53Z"/><path class="cls-1" d="M235,1.38l.26-.11h.24l.13.27.12.24.08.26.13.25.11.26.11.24.11.13.11.27.11.24.11.26.11.24.11.27.14.11.1.26.11.24.11.27.12.24.1.15.11.24.14.24.11.27.08.24.14.13.11.27.11.24.1.26.12.24.13.13.11.27.11.24.11.26.11.25.11.13.11.24.11.26.13.24.09.27.13.13.11.24.11.26.11.25.11.26.11.24.13.13.11.25.11.26.11.24.11.26.11.14.11.24.13.26.11.24.09.27.13.11.11.26.11.24.11.27.11.24.13.15.09.24.13.24.11.27.11.24.11.13.11.27.11.24.13.26.09.24.11.25.13.15.11.24.11.26.11.25.11.24.11.13.11.26.13.24.11.27.11.24.11.13.11.26.11.25.11.26.11.24.11.27.13.24.09.26.11.35.11.27.11.24.11.26.11.38.11.24.11.26.11.24.09.38.13.26.11.24L245.76,37l.14.13.08.27.14.11.11.26.1.11.12.26.13.13.11.27.11.11.11.26.13.24-.18,2.33-.41,4.26L246,50l-.33,3.29-.27.11-.15.36-.53.08-.5,0-.4,6-.68,8-.5,5.49-.27.11-.24.11-.15.11-.38,0-.37-.15-.24-.14-.38-.15-.26-.13-.37-.15-.24-.14-.38-.15-.37-.13-.24-.13-.38-.16-.24-.13-.39-.15-.38-.16-.24-.13-.37-.15-.24-.13-.38-.14-.37-.15-.27-.13-.35-.16-.26-.13-.37-.15-.25-.13-.24-.14-.24-.15-.26-.13-.24-.13-.25-.16-.24-.13-.26-.13-.24-.15-.24-.14-.25-.13-.24-.13-.26-.15-.24-.14-.25-.13-.24-.13-.24-.15L230.1,68l-.24-.14-.25-.13-.24-.15-.26-.13-.24-.14-.24-.13-.27-.15-.24-.13-.24-.13-.24-.16-.24-.13-.27-.13-.22-.18.09.42.09.48.08.51,0,.35h-.24l0,.48-.13.11-.27.11-.26.11-.13.11-.27.11-.26.11-.13.11-.27.09-.26.11-.13.13-.26.11-.27.09-.15.11-.25.11-.26.11-.15.11-.27.11-.26.11-.13.11-.26.11-.14.11-.26.11-.26.11-.14.11-.26.11-.26.11-.14.11-.26.11-.26.08-.13.14-.29.11-.24.11-.16.11-.24.08-.26.11-.13.14-.29.11-.26.08-.13.11-.27.11-.26.11-.13.11-.27.11-.13.11-.26.11-.27.11-.13.11-.26.11-.26.11-.14.11-.26.11-.29.11-.13.11-.26.11-.75,0-.39-.16-.49-.15-.37-.15-.51-.16-.5-.13-.38-.15-.5-.16-.37-.15-.51-.15-.37-.14-.51-.15-.48-.15-.38-.16-.5-.15-.37-.16-.51-.15-.51-.15-.37-.14-.5-.15-.38-.15-.5-.16-.38-.15-.5-.15-.51-.16-.35-.13-.5-.15-.38-.16-.5-.15-.38-.16-.48-.15-.51-.15-.37-.13-.5-.16-.38-.15-.5-.16-.75,0-.26,0-.14-.13-.06-.86-.07-.86-.06-.88-.07-.72-.09-.88-.06-.86-.07-.85-.07-.75-.08-.86-.07-.86-.07-.85-.08-.75-.07-.86-.07-.88-.06-.85-.07-.86-.08-.75-.07-.85-.07-.86-.06-.88-.09-.72-.07-.88-.06-.86-.07-.86-.09-.74-.06-.86-.07-.86-.09-.85-.06-.88-.07-.73-.06-.88-.09-.85-.07-.86-.06-.75-.09-.86-.07-.87-.06-.86-.07-.75-.09-.86-.06-.85-.07-.86-.06-.75-.09-.85-.07-.86-.06-.86-.07-.88-.09-.72-.06-.86-.07-.88L194,27l-.08-.75-.07-.86-.07-.85-.06-.88L193.6,23l-.06-.88-.07-.85-.07-.86-.08-.86-.07-.75-.07-.85-.08-.86,0-.88-.09-.72-.06-.88-.09-.86-.07-.86-.06-.74-.09-.86-.07-.86-.06-.88-.07-.72-.09-.88-.06-.86-.07-.85-.06-.86L192,4.59l0-.61.27-.11.13-.11.28-.11.14-.11.26-.11.13-.11.27-.11.13-.11L193.8,3l.26-.11.13-.11.27-.11.13-.11.26-.11.14-.11.28-.11.13-.11.27-.11.13-.13.26-.09.13-.11.27-.11.13-.13.26-.09.13-.11.14-.13.26-.11.15-.11.27-.09.13-.13.26-.11.14-.11.26-.11.13-.11L199,.11l.14-.11.26,0,.11.27.13.11.09.26.13.13.13.13.11.11.11.16.11.11.13.13.14.13.11.13.11.13.13.14.11.13.11.13.11.13.13.13.11.13.11.11.13.27.11.13.11.13.13.11.11.16.13.11.11.15.11.11.14.13.11.13.13.13.11.14.13.13.11.13.11.13.13.13.11.25.11.13.13.13.11.13.13.13.11.13.11.14.14.13.11.11.13.13.11.13.11.13.13.14.13.13.11.13.11.13.13.13.11.24.11.14.11.13.13.13.14.13.11.13.1.14.14.13.11.13.13.13.11.11.13.13.11.13.11.14.13.13.11.13.13.13.11.24.11.16.14.11.1.13.11.13.14.13.11.13.13.14.11.13.13.13.11.13.11.13.13.14.11.11.13.13.11.13.11.26.13.11.11.16.12.11.13.15.11.11.13.13.11.13.11.14.13.13.11.13.13.13.11.13.13.13.11.12.11.15.13.11.12.26.1.13.14.14.13.11.11.15.11.11.11.13.13.13.13.13.11.14.11.13.13.13L213,16l.13.13.12.14.13.13.11.24.11.13.11.13.13.13.11.14.13.13.11.11.13.15.11.11.11.13.13.14.11.13.14.13.1.13.11.13.14.13.11.14.11.24.13.13.11.13.13.13.11.14.11.13.13.24.11.26.11.13.11.25.11.26.11.24.11.27.13.11.11.26.11.24.11.26.11.25.13.13.09.26.11.24.13.27.11.24-.09-.86-.06-.75-.07-.85-.08-.75-.07-.86-.07-.74-.08-.86-.07-.86-.07-.74-.08-.86-.07-.75-.09-.86-.06-.74-.07-.86-.09-.75-.06-.85-.07-.75-.09-.86.05-.48.26-.11.26-.11.27-.11.26-.11.26-.09.38-.11.28-.11L219,7.6l.24-.11.29-.09.26-.11.26-.1.24-.11.29-.11.26-.09.24-.11.27-.11.28-.11.25-.11.26-.11.26-.09.4-.11L223,6l.27-.11.26-.11.26-.09.27-.11.26-.11.26-.11.27-.11.26-.11.27-.08.26-.11.26-.11.27-.11.26-.11.4-.09.26-.11.26-.11.24-.11.29-.11.26-.09.25-.11.26-.11.29-.11.26-.11.24-.11.26-.09.29-.11.24-.11.26-.11.4-.08.26-.11.27-.11.26-.11.27-.11.26-.11.26-.09.27-.11.26-.11.26-.11.27-.11.26-.11.27-.09.26-.11.26-.11ZM198.59,67.26l13.71-6.72-4-23.43a12.81,12.81,0,0,1,1.28,2c.45.87.85,1.58,1.21,2.16s.8,1.37,1.18,2l1.17,2.07,2.37,4.17q1.18,2.09,2.44,4.13c.83,1.39,1.63,2.77,2.38,4.14s1.55,2.75,2.39,4.14c.38.65.62,1,.71,1s.5.2,1.2.52c.39.19.79.37,1.18.53l1.26.53c.66.3,1.45.68,2.38,1.14a13.48,13.48,0,0,0,2.39.94l.06-1,1.87-23.32,1.78-.39L237.08,26l-1.88.87q.2-3.23.41-6.47c.15-2.16.3-4.31.46-6.47.06-1,.14-2.13.23-3.24s.17-2.18.21-3.24a5.63,5.63,0,0,0-.8-2.39,5.81,5.81,0,0,1-.8-2.36L218,9.18l3.4,38.17L198.83,1.49l-5.62,3.17Z"/></g></g></svg>