<svg xmlns="http://www.w3.org/2000/svg" viewBox="0 0 86.46 80.22"><defs><style>.cls-1{fill:none;stroke:#0a4769;stroke-miterlimit:10;stroke-width:5px;}</style></defs><g id="Layer_2" data-name="Layer 2"><g id="Layer_1-2" data-name="Layer 1"><path class="cls-1" d="M47.75,10.84a4.22,4.22,0,0,1-.57.55,8.34,8.34,0,0,0-.9.61,2.91,2.91,0,0,1-.54.51,9.51,9.51,0,0,0-1.44,1.33,14.93,14.93,0,0,0-1.61,1.67A14.14,14.14,0,0,1,41,17.23c-.71.63-1.25,1.39-1.92,2.05a20.91,20.91,0,0,0-2.2,2.59c-.35.47-.59,1-.9,1.48s-.73.91-1.06,1.39a25.61,25.61,0,0,0-1.78,4c-.21.45-.55.6-.88.93a12.89,12.89,0,0,0-1.05,1.49c-.23.3-.53.54-.74.85s-.24.5-.42.74c-.42.56-.8,1.16-1.23,1.72A12.92,12.92,0,0,0,27.19,37,11.25,11.25,0,0,1,26,39.11c-.49.65-.57,1.42-1.11,2a11.79,11.79,0,0,0-1.34,2.41,18.08,18.08,0,0,0-1,2.15c-.12.37-.13.77-.27,1.13a7.1,7.1,0,0,0-.44,1.35A18.21,18.21,0,0,0,21.47,50c0,.52,0,1-.11,1.53-.22,1.23-.36,2.44-.52,3.68a19.63,19.63,0,0,0-.27,2.86,4.52,4.52,0,0,1-.08,1.32c-.11.34-.33.65-.47,1a4.94,4.94,0,0,0-.21,1.07c-.13.78-.4,1.53-.5,2.32a29.49,29.49,0,0,0,0,3.76,15.11,15.11,0,0,0,.17,3.93,2,2,0,0,1,.19.78,2.52,2.52,0,0,0,0,.82,4.38,4.38,0,0,0,.37.67c.1.2.16.41.26.62a5.44,5.44,0,0,0,.74,1.14,1.57,1.57,0,0,0,.2.25c.06.06.15,0,.23.12s.07.19.12.24.19.1.33.21.21.35.38.46a2.94,2.94,0,0,0,.73.22,8.9,8.9,0,0,0,1.69.35,10,10,0,0,0,2.84-.13c.83-.22,1.6-.6,2.4-.9.39-.14.71-.31,1.1-.41s.56-.37.89-.52.72-.44,1.12-.59a5.11,5.11,0,0,0,1.23-.52c.58-.38,1.22-.51,1.81-.85.2-.12.44-.23.63-.36s.45-.5.74-.69.46-.14.65-.26a13,13,0,0,0,1.67-1.39,6.24,6.24,0,0,0,.71-.82c.46-.57,1-1.06,1.54-1.59.79-.8,1.68-1.44,2.54-2.17a34.63,34.63,0,0,0,3-3.13A14.38,14.38,0,0,1,50,61.05a6,6,0,0,0,.81-.7c.22-.24.28-.54.7-.53,0-.44.4-.74.58-1.1s.17-.52.31-.78.31-.48.43-.73.2-.55.32-.82a5.14,5.14,0,0,1,.51-.77c.13-.2.22-.41.34-.62s.33-.75.54-1,.61-.72.91-1.1a7.67,7.67,0,0,0,.43-.8c.19-.33.41-.62.59-1A18.73,18.73,0,0,1,58.87,48c1.05-1.22,1.41-2.72,2.22-4.06.94-1.55,2-3,2.88-4.62a21.24,21.24,0,0,0,1.19-3.75,7.91,7.91,0,0,0,.42-1.15c0-.32,0-.65,0-1s.43-1.68.86-1.82c.18-1,.64-2.2.86-3.22a21.4,21.4,0,0,1,.52-2.53c.28-.81.19-1.67.4-2.48.12-.45.29-.9.37-1.37a11.67,11.67,0,0,0,0-2c0-.92,0-1.85,0-2.77,0-.73.18-1.41.18-2.15V13.57a5.63,5.63,0,0,0-.22-2.09c-.22-.53-.29-1.07-.51-1.56-.11-.24-.22-.48-.32-.72s-.3-.48-.37-.72.07-.47-.11-.7-.45-.17-.46-.61c0,.23-1.21-.51-1.24-.53-.4-.23-.82-.41-1.23-.61a7.06,7.06,0,0,0-1.7-.69A7.66,7.66,0,0,0,60.83,5H59c-1.41,0-2.87-.1-4.27,0A3.08,3.08,0,0,0,52.61,6c-.56.61-1,1.35-1.52,2s-.91.85-1.35,1.3a5.26,5.26,0,0,1-1.26,1.14A3.33,3.33,0,0,0,47.75,10.84Z"/><path class="cls-1" d="M20.21,6.79a5.69,5.69,0,0,1-.27,2.43,2.28,2.28,0,0,0-.27,1,4.52,4.52,0,0,1-.17,1.16c-.25,1-.5,2.15-.7,3.23a15.28,15.28,0,0,0,0,2.79,16.45,16.45,0,0,0,0,3.06,9.28,9.28,0,0,1,.15.92c0,.34.19.46.33.75a12,12,0,0,1,.46,2.17A57.51,57.51,0,0,0,21.64,30a18.11,18.11,0,0,1,.71,2.46,2,2,0,0,0,.36.74,6.74,6.74,0,0,1,.42,1.34c.37,1.12.5,2.33.89,3.44s.91,2.27,1.28,3.46,1,2.43,1.4,3.68c.21.6.44,1.21.67,1.8s1,1.13,1.4,1.71c.58.81,1,1.76,1.52,2.62a31.4,31.4,0,0,1,1.88,3.53c.43,1,1.39,1.56,2,2.36.24.29.55.52.78.81s.24.5.4.74c.4.6,1.05,1,1.42,1.63A11.21,11.21,0,0,0,38,61.88c.21.24.29.53.51.76s.53.43.77.7a3.39,3.39,0,0,0,.9.87,2,2,0,0,1,.72.43,4.71,4.71,0,0,0,.71.62,3.06,3.06,0,0,1,.72.88,10.46,10.46,0,0,0,2,2.34,30.15,30.15,0,0,1,2.11,2.26c.22.21.48.34.7.55l.18.28a.74.74,0,0,0,.46.26c.26.23.47.52.72.76a13.39,13.39,0,0,0,1.09,1,4.54,4.54,0,0,0,.94.46c.44.21.75.57,1.18.78a33.29,33.29,0,0,0,3.34,1.21c.57.21,1.24,0,1.74.35.29-.09.68.23.92.31a4.26,4.26,0,0,1,.69.22,2.7,2.7,0,0,0,.66.32,8.28,8.28,0,0,0,2.19.4,6.47,6.47,0,0,0,2.33-.14,2,2,0,0,0,.78-.49c.26-.26.64-.47.89-.73a10.54,10.54,0,0,0,1.53-1.89,2.38,2.38,0,0,0,.37-.68,4.34,4.34,0,0,1,.17-.76,8.21,8.21,0,0,0,.44-1.38c.33-1.43.51-2.87.77-4.31.11-.61,0-1.24.08-1.86s.1-1.3.18-1.94a10.48,10.48,0,0,0,.29-2.22,13.07,13.07,0,0,0-.29-2.15c-.12-.54-.32-1-.47-1.56A8,8,0,0,0,67.89,56c-1-2.07-1.26-4.46-2.06-6.62a20.26,20.26,0,0,0-1.47-3.42c-1-1.64-1.59-3.4-2.51-5.06-.42-.75-.66-1.53-1-2.32-.41-.94-1.06-1.77-1.48-2.71s-.87-2.56-1.83-3.17a3.54,3.54,0,0,0-.33-1.06,20.8,20.8,0,0,1-.9-2.18,21.54,21.54,0,0,0-1.86-3.72c-.64-1.1-1.18-2.21-1.92-3.25-1.36-1.93-2.64-3.89-3.89-5.87A16,16,0,0,0,46.81,14a7.31,7.31,0,0,1-.64-1.08,4.11,4.11,0,0,0-.74-.87,3.34,3.34,0,0,1-.94-1.11c-.1-.3-.68-.5-1-.61-.63-.23-1.18-.57-1.79-.85a36.17,36.17,0,0,1-4.9-2.75,16.18,16.18,0,0,1-2.09-1.15,7.14,7.14,0,0,0-1.32-.93,15,15,0,0,1-1.56-.89,3,3,0,0,0-1.08-.65c-.41-.1-.88-.1-1.27-.24a3,3,0,0,0-1.25-.32H25.12a6.24,6.24,0,0,0-2.91.75,6.33,6.33,0,0,0-1.11,1,7.92,7.92,0,0,0-.85.8,8,8,0,0,0-1.47,3,3.9,3.9,0,0,0-.18,1.27c0,1.24,0,2.49,0,3.73"/><path class="cls-1" d="M42.71,24.82H58.32a19.94,19.94,0,0,1,3.94.18c1,.2,2,.56,3,.69.6.08,1.15.33,1.74.39.22,0,.44,0,.67,0s.57.32.89.33a10.49,10.49,0,0,1,4.84,1.51c.83.48,1.66.88,2.49,1.36a8,8,0,0,1,1.78,1.06,2.21,2.21,0,0,0,.62.37c.27.14.49.37.77.53a5.18,5.18,0,0,1,1.21.8,7.42,7.42,0,0,0,.93.61,3.78,3.78,0,0,1,.58.54c.1.12,0,.16.17.32s.18.07.26.15a14.5,14.5,0,0,1,.91,1.23,4.73,4.73,0,0,1,.49,1.1A7.38,7.38,0,0,1,84,38.85a7.27,7.27,0,0,1-.27,2.59c-.22.61-.38,1.27-.62,1.87a13.92,13.92,0,0,1-.72,1.83,5.81,5.81,0,0,1-1.41,1.71c-.39.28-.87.38-1.26.65a11,11,0,0,1-1.36.71c-1,.52-2,1-3,1.57-1.19.65-2.38,1.32-3.61,1.9a16.23,16.23,0,0,1-4.16,1.13,46.63,46.63,0,0,1-5.86.91c-1,.07-2.08,0-3.11,0a15.46,15.46,0,0,1-1.56.19,2.53,2.53,0,0,1-1.05.4c-.57.16-1.11.3-1.67.5a27.05,27.05,0,0,1-3.35.75c-.57.13-1.11.34-1.67.46s-1.42,0-2.12.07a19,19,0,0,1-2.93.14l-11.1,0a17.22,17.22,0,0,1-4.51-.68c-1.77-.46-3.55-.88-5.32-1.35a14.81,14.81,0,0,0-3.81-.86c-.58,0-1.17,0-1.75,0a10.24,10.24,0,0,1-2.65-.33,13.68,13.68,0,0,1-2.34-1.14c-.85-.44-1.71-.88-2.52-1.39s-1.49-.67-2.12-1.11a1.44,1.44,0,0,1-.45-.5A2.35,2.35,0,0,0,7,48.57c-.32-.16-.59-.38-.89-.53s-.39-.16-.39-.51c-.59,0-1-1.19-1.21-1.64s-.59-.77-.79-1.23-.46-.83-.65-1.27a6.21,6.21,0,0,1-.52-1.33,5.89,5.89,0,0,1,0-1V39.11a5,5,0,0,1,0-.86,2,2,0,0,1,.64-.91A7.33,7.33,0,0,1,4,36.61a7.17,7.17,0,0,0,.76-.81,8.71,8.71,0,0,1,2.39-1.93c.38-.18.68-.43,1.06-.62a2.2,2.2,0,0,0,.93-.57,2.43,2.43,0,0,0,1.33-.34,23.35,23.35,0,0,1,4.07-1.5,43.63,43.63,0,0,1,4.33-1.11A23.08,23.08,0,0,1,22,29.1a6.53,6.53,0,0,0,1.76-.27,10.06,10.06,0,0,1,1.55-.07,21.1,21.1,0,0,0,2.37-.46,10.58,10.58,0,0,1,2.7-.44,4.54,4.54,0,0,0,1.4-.33,9.9,9.9,0,0,0,1.41-.32,7.53,7.53,0,0,1,3-.78,3.09,3.09,0,0,0,1.2-.23,5.85,5.85,0,0,0,1-.31,4.26,4.26,0,0,1,1.65-.17,10.65,10.65,0,0,0,1.2-.32c.26,0,.55,0,.81-.08A7.59,7.59,0,0,1,43.14,25c.81-.08,1.57-.22,2.36-.35.55-.1,1,.06,1.49-.2"/></g></g></svg>