<svg id="Layer_1" data-name="Layer 1" xmlns="http://www.w3.org/2000/svg" viewBox="0 0 1000 1000"><defs><style>.cls-1{fill:#00c7ff;}</style></defs><circle class="cls-1" cx="499.12" cy="500.72" r="91.04" transform="translate(-207.87 499.59) rotate(-45)"/><path class="cls-1" d="M499.12,835.52c71.46,69.5,142,110.62,198.73,110.62,18.6,0,36.22-3.92,50.9-12.73,50.91-29.37,69.51-102.79,51.89-207.54-2.94-18.6-6.86-37.2-11.75-56.77,19.58-5.88,37.2-11.75,54.82-17.63,98.87-38.17,153.7-91,153.7-148.8,0-58.73-54.83-111.59-153.7-148.79a448.59,448.59,0,0,0-54.82-17.63c4.89-19.57,8.81-38.17,11.75-56.77,16.64-106.71-2-181.11-52.87-210.48-14.68-8.81-32.3-12.72-50.9-12.72-55.8,0-127.26,41.11-198.73,110.62C427.66,97.39,357.17,56.28,300.4,56.28c-18.6,0-36.23,3.91-50.91,12.72-50.9,29.37-69.5,102.79-51.88,207.54,2.93,18.6,6.85,37.2,11.74,56.78-19.57,5.87-37.2,11.74-54.82,17.62C55.66,389.12.84,442,.84,499.74c0,58.73,54.82,111.6,153.69,148.8a450.87,450.87,0,0,0,54.82,17.62c-4.89,19.58-8.81,38.18-11.74,56.78C181,827.68,199.56,902.08,249.49,930.47c14.68,8.81,32.31,12.73,50.91,12.73C357.17,945.16,427.66,904,499.12,835.52ZM444.3,703.36c17.62,1,36.22,1,54.82,1s37.2,0,54.82-1c-17.62,23.49-36.22,45-54.82,65.59C480.52,748.39,461.92,726.85,444.3,703.36ZM322.91,602.53c9.79,16.64,18.6,32.3,29.37,48-30.35-3.92-58.74-8.81-86.15-14.69,8.81-26.43,18.6-53.84,30.35-81.25C304.31,570.22,313.12,586.86,322.91,602.53ZM266.13,366.6c27.41-5.87,55.8-10.77,86.15-14.68-9.79,15.66-19.58,31.32-29.37,48s-18.6,32.3-26.43,48.94A653.74,653.74,0,0,1,266.13,366.6ZM320,500.72c12.73-26.43,26.44-52.87,42.1-79.3,14.68-25.45,31.33-50.9,48-76.36,29.37-1.95,58.73-2.93,89.08-2.93,31.33,0,60.7,1,89.09,2.93,17.62,25.46,33.28,50.91,48,76.36,15.67,26.43,29.37,52.87,42.1,79.3-12.73,26.43-26.43,52.86-42.1,79.29-14.68,25.45-31.32,50.91-48,76.36-29.37,2-58.74,2.94-89.09,2.94-31.32,0-60.69-1-89.08-2.94-17.62-25.45-33.29-50.91-48-76.36C346.41,553.58,332.7,527.15,320,500.72Zm382.77-52.87-26.43-48.94c-9.79-16.65-18.6-32.31-29.37-48,30.35,3.91,58.74,8.81,86.15,14.68C724.28,393,714.49,420.44,702.74,447.85Zm0,105.73c11.75,27.41,21.54,54.82,30.35,81.25-27.41,5.88-55.8,10.77-86.15,14.69,9.79-15.67,19.58-31.33,29.37-48C685.12,586.86,693.93,570.22,702.74,553.58Zm22.52,339.69c-7.83,4.9-17.62,6.86-28.39,6.86-48,0-107.69-39.16-166.42-97.9,28.39-30.35,55.8-64.61,83.21-102.79a897.18,897.18,0,0,0,131.18-20.55c4.89,17.62,7.83,35.24,10.77,52.86C769.31,815,758.54,874.67,725.26,893.27Zm50.9-515.9c109.65,31.33,175.23,79.29,175.23,123.35,0,38.18-45,76.35-124.32,106.7-15.66,5.88-33.29,11.75-50.91,16.64a1029.29,1029.29,0,0,0-48-123.34C747.77,458.62,764.42,417.51,776.16,377.37ZM697.85,101.31c10.77,0,19.58,2,28.39,6.85,32.3,18.6,44,77.34,30.34,161.53-2.93,16.64-6.85,34.26-10.76,52.86A1272.21,1272.21,0,0,0,614.64,302,904.39,904.39,0,0,0,531.43,199.2C590.16,141.44,649.88,101.31,697.85,101.31ZM553.94,298.08c-17.62-1-36.22-1-54.82-1s-37.2,0-54.82,1c17.62-23.5,36.22-45,54.82-65.59C517.72,253,536.32,275.56,553.94,298.08ZM273,108.16c7.83-4.89,17.62-6.85,28.38-6.85,48,0,107.69,39.16,166.43,97.89C439.41,229.55,412,263.81,384.59,302c-46,3.92-90.07,10.77-131.18,20.56-4.9-17.62-7.83-35.24-10.77-52.86C228.93,186.48,239.7,127.74,273,108.16Zm-50.91,515.9C112.44,592.74,46.85,544.77,46.85,500.72c0-38.18,45-76.36,124.33-106.71,15.66-5.87,33.28-11.75,50.9-16.64a1029.53,1029.53,0,0,0,48,123.35C250.47,542.81,233.83,584.91,222.08,624.06Zm20.56,107.69c2.94-16.64,6.85-34.26,10.77-52.86a1268.7,1268.7,0,0,0,131.18,20.55A904.39,904.39,0,0,0,467.8,802.23c-58.74,57.76-118.46,97.9-166.43,97.9-10.76,0-19.57-2-28.38-6.86C239.7,874.67,228.93,815,242.64,731.75Z"/></svg>