<svg xmlns="http://www.w3.org/2000/svg" viewBox="0 0 49.08 21.39"><defs><style>.cls-1{fill:#0a4769;}</style></defs><g id="Layer_2" data-name="Layer 2"><g id="Layer_1-2" data-name="Layer 1"><path class="cls-1" d="M12.47,9.61a5.45,5.45,0,0,1,.13,1.44c0,.24.09.61.14,1.11,0,.3,0,.77,0,1.39,0,.16.17.88.45,2.17V16a.64.64,0,0,0,0,.25,6.38,6.38,0,0,0,.37.86,5.87,5.87,0,0,1,.37.84,1.71,1.71,0,0,1,0,.69,1.5,1.5,0,0,1-.21.64,3.67,3.67,0,0,1-1.46.6l-.4.1-.59-.22c-.39-.15-.6-.24-.65-.27a1.44,1.44,0,0,1-.34-.28,2.44,2.44,0,0,0-.3-.29.49.49,0,0,1-.24-.07,6.14,6.14,0,0,0-.46-.47,11.63,11.63,0,0,1-1.14-.87A13.35,13.35,0,0,0,7,16.61a3.35,3.35,0,0,0-.16,1.66,4.4,4.4,0,0,1,.08,1A9.79,9.79,0,0,0,7,20.35l-.4.47a1.41,1.41,0,0,1-.44.39A3.83,3.83,0,0,1,5,21.39,2.13,2.13,0,0,1,3.8,21a3.48,3.48,0,0,0-.74-.63,3.44,3.44,0,0,0-.5-.82L2,18.77a11.3,11.3,0,0,1-.75-1.24c-.35-.65-.58-1.07-.69-1.25a.87.87,0,0,0,0-.26.64.64,0,0,0-.15-.21.53.53,0,0,1-.16-.21.39.39,0,0,1,0-.2l-.15-.53c-.23-.79.23-1.35,1.37-1.68a2,2,0,0,1,2,.52.77.77,0,0,1,.19.31,1,1,0,0,1,0,.22,1.69,1.69,0,0,0,0,.21.22.22,0,0,0,.11.15l.13,0a3.22,3.22,0,0,0,.19-1.29,3,3,0,0,1,0-.59,2.33,2.33,0,0,1,.4-.39,1,1,0,0,0,.11-.19c.05-.1.1-.16.14-.17l1.14-.33a1.45,1.45,0,0,1,.42.07l.45.11a2.77,2.77,0,0,1,.51.05,6.37,6.37,0,0,1,.81.87,9,9,0,0,1,.8,1A1.44,1.44,0,0,0,9.2,14a1.27,1.27,0,0,1,.33.29.1.1,0,0,1,.13,0q.06-.46.06-.54a2.62,2.62,0,0,0-.08-.53v-.05L9.69,13c0-.14-.08-.36-.14-.65a.83.83,0,0,0,0-.44.64.64,0,0,1,0-.36.78.78,0,0,0,0-.31,5.58,5.58,0,0,0-.29-1.1,5,5,0,0,0,.44-.75A.51.51,0,0,1,10,9.14l.08,0a.3.3,0,0,1,.23,0,2.1,2.1,0,0,1,.91-.07l.89.09A.86.86,0,0,1,12.47,9.61Z"/><path class="cls-1" d="M23.55,9.55a8.39,8.39,0,0,1,.3,1.31,5.1,5.1,0,0,1,0,1.34c0,.11,0,.29,0,.53a5.82,5.82,0,0,1-.93,2.67,9.1,9.1,0,0,1-1.39,1.71,2,2,0,0,1-.32.11.41.41,0,0,0-.2.13.38.38,0,0,1-.14.11.26.26,0,0,1-.17,0l-.18,0-.34.12-.34.12a2.71,2.71,0,0,1-1.38.05,8.06,8.06,0,0,1-1.31-.51,5.18,5.18,0,0,1-.61-.24,2.15,2.15,0,0,1-.55-.5l-.16-.24a1.17,1.17,0,0,0-.23-.1,3.2,3.2,0,0,1-.53-1.08,19.31,19.31,0,0,1-.47-2.68l.12-.53c0-.12,0-.28,0-.5,0,0,.18-.46.51-1.34a1.71,1.71,0,0,1,.46-.6l.58-.5.24-.31a.87.87,0,0,1,.39-.21h.13l.14,0a.35.35,0,0,0,.13-.1.45.45,0,0,1,.1-.1l.73-.24a.67.67,0,0,1,.34-.23,7.54,7.54,0,0,1,2.81-.14.43.43,0,0,1,.23.11.4.4,0,0,0,.2.12l.36.09a2.19,2.19,0,0,1,1,.77A5.19,5.19,0,0,1,23.55,9.55Zm-3.37.62c0-.07-.14-.15-.37-.26a.85.85,0,0,0-.44-.12.88.88,0,0,0-.26.19,1,1,0,0,1-.34.21c-.12,0-.29.19-.49.47a2.25,2.25,0,0,0-.37.62,3.93,3.93,0,0,1,0,.76s0,.08-.09.21a.51.51,0,0,0,0,.26.93.93,0,0,0,.07.15c0,.08,0,.19-.08.33a4.37,4.37,0,0,0,.2,1.25q.29.94,1.05.72a1.28,1.28,0,0,0,.67-.63,4.61,4.61,0,0,0,.48-.68A4.54,4.54,0,0,0,20.28,11a1.56,1.56,0,0,1-.05-.44A2.36,2.36,0,0,0,20.18,10.17Z"/><path class="cls-1" d="M37.2,10.73a.26.26,0,0,1,0,.16.09.09,0,0,1,0,.06V11l-.51.73a1.5,1.5,0,0,1-.74.45l-1.25.36-.3,0h-.35l-2,.23-.7,0a2.27,2.27,0,0,0-.73.11,7.84,7.84,0,0,0,.12.83,2.86,2.86,0,0,1-.18.38,2.81,2.81,0,0,1-.39.33,2.12,2.12,0,0,1-.45.27,2.45,2.45,0,0,1-1.64-.48l-.2-.25a5.33,5.33,0,0,1-.7-.45,5.3,5.3,0,0,1-.91-1,4.47,4.47,0,0,1-.16-.52,2.23,2.23,0,0,0-.25-.48,2.21,2.21,0,0,1-.25-.47.87.87,0,0,1,0-.18.84.84,0,0,0,0-.19s-.05-.08-.13-.14a.34.34,0,0,1-.15-.17,1.16,1.16,0,0,1,0-.43c0-.1-.12-.26-.23-.47a1.51,1.51,0,0,0-.31-.39c-.16-.16-.24-.29-.23-.4l-.07,0a2.73,2.73,0,0,1,0-.86,4.82,4.82,0,0,0,.26-.42,3.48,3.48,0,0,0,.09-.48c.5-.19.73-.42.7-.7a3.84,3.84,0,0,1,1-.49l.1-.15c1.24-.53,2.07-.85,2.51-1l.39-.1v0s.05,0,.11,0a2.34,2.34,0,0,0,.46-.21,2.64,2.64,0,0,1,.46-.21A5.57,5.57,0,0,1,31.48,4l.86-.12.17.08a1.77,1.77,0,0,1,1.07,0c.1,0,.43.2,1,.49a1.06,1.06,0,0,0,.14.2,1,1,0,0,1,.14.22,2,2,0,0,1-.05.91A7.71,7.71,0,0,1,33.64,8l-1.46,2.11a.75.75,0,0,0,.32,0l0,0h0s0,0,0,0,.7-.05,1.83-.07l2.05,0,.43.36A1,1,0,0,1,37.2,10.73ZM30.33,7.17l-.1-.09-1.07.64a1.21,1.21,0,0,0-.24,1.21h-.06s0,0,0,.06l.11.39c.26-.36.53-.72.79-1.09A2.71,2.71,0,0,0,30.33,7.17Z"/><path class="cls-1" d="M49.05,7.64a1,1,0,0,1-.25.85,1.49,1.49,0,0,1-.7.58.45.45,0,0,1-.17,0l0,0-.2,0-.19,0-.18-.06-1-.05-2.1-.27a7.5,7.5,0,0,0-1.12,0L42,8.72a1.71,1.71,0,0,0-.06.39.69.69,0,0,0,0,.1.26.26,0,0,1,0,.1.86.86,0,0,1-.12.67,2.26,2.26,0,0,1-.46.42,2.17,2.17,0,0,1-.54.34,1.27,1.27,0,0,1-.53,0,2.62,2.62,0,0,1-.55-.13,2.83,2.83,0,0,1-.9-.78,5.88,5.88,0,0,1-.69-1s0-.12-.12-.4A.81.81,0,0,0,38,8.12a1.21,1.21,0,0,1-.16-.25.79.79,0,0,1-.07-.23,1.64,1.64,0,0,0,0-.22,1.07,1.07,0,0,0-.18-.28.75.75,0,0,1-.17-.26l-.05-.22a1.7,1.7,0,0,0,0-.23.47.47,0,0,0-.1-.16.27.27,0,0,1-.1-.13l-.14-.47c-.06-.22-.13-.42-.19-.58a4.84,4.84,0,0,0-.28-.42,1.8,1.8,0,0,1-.24-.38.13.13,0,0,1,0-.11s.05-.06,0-.07a1.68,1.68,0,0,1,.54-.88,4.42,4.42,0,0,1,.32-.47l1.08-.39a1.22,1.22,0,0,1,.84.1l.77.42a1.78,1.78,0,0,1,.08.25.5.5,0,0,0,.2.26c.1.07.16.12.17.15a2,2,0,0,1,0,.28,2.56,2.56,0,0,0,.07.36,1,1,0,0,0,.33.57c.22-.29.36-.48.4-.55a2.22,2.22,0,0,0,.31-.58l.16-.13c.19-.37.39-.73.6-1.09a3.77,3.77,0,0,0,.38-1.18A1.15,1.15,0,0,1,43,.6a1.83,1.83,0,0,1,.67-.4c1.19-.34,1.93-.25,2.23.28a.38.38,0,0,1,.33.26,1.67,1.67,0,0,1,0,1.1c-.07.12-.31.53-.75,1.23s-.92,1.5-1.32,2.17l-.32.4a1.14,1.14,0,0,0-.24.53,4.7,4.7,0,0,1,.74,0l1,.29.77.11.45.14a5.15,5.15,0,0,1,2.24.76l.14.08A.14.14,0,0,1,49.05,7.64Z"/></g></g></svg>