<svg xmlns="http://www.w3.org/2000/svg" viewBox="0 0 126.34 154.47"><defs><style>.cls-1{fill:#fff;}</style></defs><g id="Layer_2" data-name="Layer 2"><g id="Layer_1-2" data-name="Layer 1"><rect class="cls-1" x="113.22" y="28.79" width="13.12" height="49.32"/><polygon class="cls-1" points="113.22 83.78 126.34 83.78 126.34 154.47 57.98 86.12 57.98 128.13 45.59 128.13 45.59 51.1 113.22 120.46 113.22 83.78"/><polygon class="cls-1" points="58.34 142.72 58.34 154.47 18.3 154.47 18.3 41.29 31.3 41.29 31.3 143.07 58.34 142.72"/><polygon class="cls-1" points="49.31 7.95 47.23 23.93 2.88 23.93 0 7.95 8.67 11.77 6.59 14.55 20.48 14.55 18.3 10.88 24.66 0 31.25 10.73 29.51 14.55 42.71 14.55 41.52 11.96 49.31 7.95"/><polygon class="cls-1" points="46.53 28.79 44.73 41.29 5.71 41.29 3.54 28.79 46.53 28.79"/></g></g></svg>