<svg xmlns="http://www.w3.org/2000/svg" viewBox="0 0 213.95 261.6"><defs><style>.cls-1{fill:#fff;}</style></defs><g id="Layer_2" data-name="Layer 2"><g id="Layer_1-2" data-name="Layer 1"><rect class="cls-1" x="191.74" y="48.75" width="22.21" height="83.53"/><polygon class="cls-1" points="191.74 141.88 213.95 141.88 213.95 261.6 98.19 145.84 98.19 216.99 77.2 216.99 77.2 86.54 191.74 204 191.74 141.88"/><polygon class="cls-1" points="98.8 241.69 98.8 261.6 30.99 261.6 30.99 69.93 53.01 69.93 53.01 242.28 98.8 241.69"/><polygon class="cls-1" points="83.51 13.46 79.98 40.52 4.87 40.52 0 13.46 14.68 19.93 11.15 24.64 34.68 24.64 30.99 18.42 41.75 0 52.92 18.16 49.98 24.64 72.33 24.64 70.31 20.26 83.51 13.46"/><polygon class="cls-1" points="78.8 48.75 75.74 69.93 9.67 69.93 6 48.75 78.8 48.75"/></g></g></svg>